<svg width="129" height="32" viewBox="0 0 129 32" fill="none" xmlns="http://www.w3.org/2000/svg">
<path d="M15 3.2C15.1267 3.2 15.19 3.2 15.2434 3.20448C15.912 3.26063 16.4431 3.82714 16.4958 4.54042C16.5 4.5974 16.5 4.66493 16.5 4.8V6.80925C16.5 6.86847 16.5 6.89807 16.4989 6.92662C16.4862 7.27268 16.358 7.60253 16.1377 7.85686C16.1195 7.87783 16.0999 7.89876 16.0606 7.94063C15.9712 8.03613 15.9263 8.0839 15.8855 8.121C15.3755 8.58567 14.6245 8.58567 14.1145 8.121C14.0737 8.0839 14.0288 8.03613 13.9394 7.94063C13.9001 7.89876 13.8805 7.87783 13.8623 7.85686C13.642 7.60253 13.5138 7.27268 13.501 6.92662C13.5 6.89807 13.5 6.86847 13.5 6.80927V4.8C13.5 4.66493 13.5 4.5974 13.5042 4.54042C13.5568 3.82714 14.088 3.26063 14.7566 3.20448C14.81 3.2 14.8733 3.2 15 3.2ZM25.5 14.4C25.6267 14.4 25.69 14.4 25.7434 14.4045C26.412 14.4607 26.9431 15.0272 26.9958 15.7404C27 15.7974 27 15.8649 27 16C27 16.1351 27 16.2026 26.9958 16.2596C26.9431 16.9728 26.412 17.5393 25.7434 17.5955C25.69 17.6 25.6267 17.6 25.5 17.6H23.6163C23.5608 17.6 23.5331 17.6 23.5064 17.5988C23.1818 17.5853 22.8727 17.4486 22.6342 17.2135C22.6145 17.1942 22.5949 17.1732 22.5556 17.1313C22.4662 17.0359 22.4213 16.9881 22.3865 16.9446C21.9509 16.4006 21.9509 15.5994 22.3865 15.0554C22.4213 15.0119 22.4662 14.9641 22.5556 14.8687C22.5949 14.8268 22.6145 14.8058 22.6342 14.7865C22.8727 14.5514 23.1818 14.4147 23.5064 14.4012C23.5331 14.4 23.5608 14.4 23.6163 14.4H25.5ZM6.38367 14.4C6.43919 14.4 6.46694 14.4 6.4937 14.4012C6.81814 14.4147 7.12737 14.5514 7.3658 14.7865C7.38547 14.8058 7.40509 14.8268 7.44434 14.8687C7.53387 14.9641 7.57865 15.0119 7.61344 15.0554C8.04907 15.5994 8.04907 16.4006 7.61344 16.9446C7.57865 16.9881 7.53387 17.0359 7.44434 17.1313C7.40509 17.1732 7.38547 17.1942 7.3658 17.2135C7.12737 17.4486 6.81814 17.5853 6.4937 17.5988C6.46694 17.6 6.43919 17.6 6.38369 17.6H4.5C4.37337 17.6 4.31006 17.6 4.25665 17.5955C3.58795 17.5393 3.05684 16.9728 3.0042 16.2596C3 16.2026 3 16.1351 3 16C3 15.8649 3 15.7974 3.0042 15.7404C3.05684 15.0272 3.58795 14.4607 4.25665 14.4045C4.31006 14.4 4.37337 14.4 4.5 14.4H6.38367ZM13.9394 24.0593C14.0288 23.9639 14.0737 23.9161 14.1145 23.879C14.6245 23.4143 15.3755 23.4143 15.8855 23.879C15.9263 23.9161 15.9712 23.9639 16.0606 24.0593C16.0999 24.1012 16.1195 24.1222 16.1377 24.1431C16.358 24.3975 16.4862 24.7273 16.4989 25.0735C16.5 25.102 16.5 25.1315 16.5 25.1907V27.2C16.5 27.3351 16.5 27.4026 16.4958 27.4596C16.4431 28.1728 15.912 28.7393 15.2434 28.7955C15.19 28.8 15.1267 28.8 15 28.8C14.8733 28.8 14.81 28.8 14.7566 28.7955C14.088 28.7393 13.5568 28.1728 13.5042 27.4596C13.5 27.4026 13.5 27.3351 13.5 27.2V25.1907C13.5 25.1315 13.5 25.102 13.501 25.0735C13.5138 24.7273 13.642 24.3975 13.8623 24.1431C13.8805 24.1222 13.9001 24.1012 13.9394 24.0593ZM19.5 2.90909C19.5 1.53773 19.5 0.852058 19.1006 0.426022C18.7012 -8.66977e-08 18.0584 0 16.7727 0H13.2273C11.9416 0 11.2988 -8.66977e-08 10.8994 0.426022C10.5 0.852058 10.5 1.53773 10.5 2.90909V7.59501C10.5 8.18956 10.5 8.48684 10.6038 8.75414C10.7076 9.02144 10.9047 9.23165 11.2988 9.65206L13.0715 11.543C13.9807 12.5127 14.4352 12.9975 15 12.9975C15.5648 12.9975 16.0193 12.5127 16.9285 11.543L18.7012 9.65206C19.0953 9.23165 19.2925 9.02144 19.3962 8.75414C19.5 8.48684 19.5 8.18956 19.5 7.59501V2.90909ZM30 14.1091C30 12.7377 30 12.0521 29.6006 11.626C29.2012 11.2 28.5584 11.2 27.2727 11.2H22.8796C22.3223 11.2 22.0436 11.2 21.793 11.3107C21.5425 11.4214 21.3453 11.6317 20.9512 12.0521L19.1785 13.943C18.2693 14.9127 17.8148 15.3975 17.8148 16C17.8148 16.6025 18.2693 17.0873 19.1785 18.057L20.9512 19.9479C21.3453 20.3683 21.5425 20.5786 21.793 20.6893C22.0436 20.8 22.3223 20.8 22.8796 20.8H27.2727C28.5584 20.8 29.2012 20.8 29.6006 20.374C30 19.9479 30 19.2623 30 17.8909V14.1091ZM9.0488 12.0521C8.65467 11.6317 8.4576 11.4214 8.207 11.3107C7.95641 11.2 7.67771 11.2 7.12032 11.2H2.72727C1.44162 11.2 0.798799 11.2 0.3994 11.626C0 12.0521 0 12.7377 0 14.1091V17.8909C0 19.2623 0 19.9479 0.3994 20.374C0.798799 20.8 1.44162 20.8 2.72727 20.8H7.12032C7.67771 20.8 7.95641 20.8 8.207 20.6893C8.4576 20.5786 8.65467 20.3683 9.0488 19.9479L10.8215 18.057C11.7306 17.0873 12.1852 16.6025 12.1852 16C12.1852 15.3975 11.7306 14.9127 10.8215 13.943L9.0488 12.0521ZM16.9285 20.457C16.0193 19.4873 15.5648 19.0025 15 19.0025C14.4352 19.0025 13.9807 19.4873 13.0715 20.457L11.2988 22.3479C10.9047 22.7683 10.7076 22.9786 10.6038 23.2458C10.5 23.5132 10.5 23.8105 10.5 24.4049V29.0909C10.5 30.4623 10.5 31.1479 10.8994 31.574C11.2988 32 11.9416 32 13.2273 32H16.7727C18.0584 32 18.7012 32 19.1006 31.574C19.5 31.1479 19.5 30.4623 19.5 29.0909V24.4049C19.5 23.8105 19.5 23.5132 19.3962 23.2458C19.2925 22.9786 19.0953 22.7683 18.7012 22.3479L16.9285 20.457Z" fill="#AAAAAA"/>
<path d="M48.2709 14.9213C47.3125 14.9213 46.485 14.6657 45.7881 14.1544C45.0911 13.6301 44.6058 12.9288 44.332 12.0505C44.1329 11.4606 44.0333 10.6741 44.0333 9.69097C44.0333 8.74715 44.1329 7.97375 44.332 7.37076C44.5934 6.50559 45.0724 5.82395 45.7694 5.32582C46.4788 4.81459 47.3125 4.55897 48.2709 4.55897C49.2416 4.55897 50.0879 4.81459 50.8096 5.32582C51.5314 5.83706 52.0106 6.47937 52.247 7.25278C52.3093 7.46251 52.3528 7.67226 52.3777 7.88199V7.92132C52.3777 8.0524 52.3093 8.13105 52.1724 8.15727L50.4923 8.41289H50.455C50.343 8.41289 50.2683 8.34734 50.231 8.21626C50.231 8.15071 50.2247 8.09828 50.2123 8.05896C50.1873 7.95408 50.1625 7.86233 50.1376 7.78368C50.0256 7.41664 49.8016 7.11514 49.4656 6.87919C49.1296 6.64323 48.7313 6.52525 48.2709 6.52525C47.7979 6.52525 47.3935 6.65634 47.0575 6.91851C46.7339 7.16757 46.5161 7.51496 46.4041 7.96064C46.2797 8.38012 46.2174 8.96345 46.2174 9.71063C46.2174 10.4316 46.2734 11.0149 46.3854 11.4606C46.5098 11.9194 46.7339 12.2865 47.0575 12.5617C47.3811 12.8239 47.7855 12.955 48.2709 12.955C48.7438 12.955 49.1482 12.8305 49.4842 12.5814C49.8327 12.3192 50.0567 11.9719 50.1563 11.5393C50.1687 11.5131 50.1749 11.4803 50.1749 11.441C50.1873 11.4279 50.1936 11.4082 50.1936 11.382C50.231 11.2247 50.318 11.1591 50.455 11.1853L52.135 11.4606C52.1973 11.4737 52.247 11.5065 52.2844 11.5589C52.3341 11.5983 52.3528 11.6573 52.3404 11.7359C52.303 11.9456 52.272 12.0964 52.247 12.1882C52.0106 13.0271 51.5314 13.6956 50.8096 14.1938C50.0879 14.6787 49.2416 14.9213 48.2709 14.9213ZM58.1714 14.9213C57.1883 14.9213 56.342 14.6591 55.6327 14.1348C54.9358 13.6105 54.4442 12.8829 54.1579 11.9522C53.9465 11.2443 53.8406 10.4971 53.8406 9.71063C53.8406 8.87169 53.9402 8.1245 54.1393 7.46907C54.4255 6.55148 54.9233 5.83706 55.6327 5.32582C56.342 4.81459 57.1946 4.55897 58.1901 4.55897C59.136 4.55897 59.9511 4.81459 60.6356 5.32582C61.3325 5.83706 61.8241 6.54492 62.1103 7.44941C62.3343 8.07862 62.4463 8.82581 62.4463 9.69097C62.4463 10.5168 62.3406 11.264 62.129 11.9325C61.8428 12.8632 61.3512 13.5973 60.6542 14.1348C59.9574 14.6591 59.1298 14.9213 58.1714 14.9213ZM58.1714 12.955C58.632 12.955 59.024 12.8174 59.3475 12.5421C59.6835 12.2668 59.9262 11.8801 60.0755 11.382C60.2001 10.9494 60.2622 10.3988 60.2622 9.7303C60.2622 9.02243 60.2001 8.47188 60.0755 8.07862C59.9387 7.58049 59.7022 7.20035 59.3662 6.93817C59.0302 6.66289 58.6195 6.52525 58.1341 6.52525C57.6737 6.52525 57.2754 6.66289 56.9394 6.93817C56.6034 7.20035 56.3607 7.58049 56.2114 8.07862C56.0869 8.53742 56.0247 9.08798 56.0247 9.7303C56.0247 10.3726 56.0869 10.9232 56.2114 11.382C56.3483 11.8801 56.5847 12.2668 56.9207 12.5421C57.2693 12.8174 57.6861 12.955 58.1714 12.955ZM70.4111 1.23595C70.4111 1.17041 70.4297 1.11798 70.4671 1.07865C70.5169 1.02622 70.5729 1 70.6351 1H72.3525C72.4148 1 72.4645 1.02622 72.5018 1.07865C72.5517 1.11798 72.5765 1.17041 72.5765 1.23595V14.528C72.5765 14.5936 72.5517 14.6526 72.5018 14.705C72.4645 14.7443 72.4148 14.764 72.3525 14.764H70.6351C70.5729 14.764 70.5169 14.7443 70.4671 14.705C70.4297 14.6526 70.4111 14.5936 70.4111 14.528V13.9381C70.4111 13.8988 70.3987 13.8726 70.3737 13.8595C70.3489 13.8464 70.324 13.8595 70.2991 13.8988C69.7516 14.5804 69.0359 14.9213 68.1523 14.9213C67.2688 14.9213 66.5221 14.6787 65.9122 14.1938C65.3024 13.7088 64.8607 13.0337 64.5868 12.1685C64.3628 11.4344 64.2508 10.6151 64.2508 9.71063C64.2508 8.77992 64.3567 7.9803 64.5681 7.31177C64.842 6.4466 65.2838 5.77151 65.8935 5.2865C66.5034 4.80148 67.2688 4.55897 68.1896 4.55897C69.0483 4.55897 69.7516 4.88668 70.2991 5.54211C70.324 5.56834 70.3489 5.58144 70.3737 5.58144C70.3987 5.56834 70.4111 5.54211 70.4111 5.50279V1.23595ZM69.963 12.0112C70.2493 11.4737 70.3924 10.7134 70.3924 9.7303C70.3924 8.70783 70.2369 7.92788 69.9257 7.39042C69.5897 6.81364 69.1169 6.52525 68.507 6.52525C67.8723 6.52525 67.3745 6.80054 67.0136 7.35109C66.6402 7.92788 66.4536 8.72749 66.4536 9.74996C66.4536 10.6676 66.6029 11.4213 66.9016 12.0112C67.2501 12.6404 67.7789 12.955 68.4883 12.955C69.123 12.955 69.6146 12.6404 69.963 12.0112ZM78.972 14.9213C77.9887 14.9213 77.1426 14.6591 76.4332 14.1348C75.7362 13.6105 75.2446 12.8829 74.9585 11.9522C74.7469 11.2443 74.6411 10.4971 74.6411 9.71063C74.6411 8.87169 74.7406 8.1245 74.9398 7.46907C75.226 6.55148 75.7238 5.83706 76.4332 5.32582C77.1426 4.81459 77.995 4.55897 78.9907 4.55897C79.9364 4.55897 80.7515 4.81459 81.4361 5.32582C82.1329 5.83706 82.6246 6.54492 82.9108 7.44941C83.1348 8.07862 83.2468 8.82581 83.2468 9.69097C83.2468 10.5168 83.141 11.264 82.9295 11.9325C82.6432 12.8632 82.1516 13.5973 81.4548 14.1348C80.7578 14.6591 79.9302 14.9213 78.972 14.9213ZM78.972 12.955C79.4324 12.955 79.8244 12.8174 80.148 12.5421C80.4841 12.2668 80.7267 11.8801 80.8761 11.382C81.0005 10.9494 81.0628 10.3988 81.0628 9.7303C81.0628 9.02243 81.0005 8.47188 80.8761 8.07862C80.7391 7.58049 80.5027 7.20035 80.1667 6.93817C79.8307 6.66289 79.42 6.52525 78.9347 6.52525C78.4741 6.52525 78.0759 6.66289 77.7399 6.93817C77.4039 7.20035 77.1612 7.58049 77.0119 8.07862C76.8874 8.53742 76.8252 9.08798 76.8252 9.7303C76.8252 10.3726 76.8874 10.9232 77.0119 11.382C77.1487 11.8801 77.3853 12.2668 77.7213 12.5421C78.0697 12.8174 78.4866 12.955 78.972 12.955ZM93.377 7.31177C93.6011 7.9803 93.7131 8.79958 93.7131 9.76962C93.7131 10.7003 93.6072 11.5 93.3957 12.1685C93.1218 13.0337 92.6801 13.7088 92.0703 14.1938C91.473 14.6787 90.7137 14.9213 89.7929 14.9213C88.9092 14.9213 88.1999 14.587 87.6648 13.9185C87.6399 13.8922 87.6149 13.8858 87.5901 13.8988C87.5652 13.9119 87.5528 13.9381 87.5528 13.9775V18.2443C87.5528 18.3099 87.5278 18.3623 87.4781 18.4016C87.4408 18.454 87.3909 18.4803 87.3288 18.4803H85.6114C85.5491 18.4803 85.4931 18.454 85.4434 18.4016C85.406 18.3623 85.3873 18.3099 85.3873 18.2443V4.95223C85.3873 4.88668 85.406 4.83425 85.4434 4.79493C85.4931 4.7425 85.5491 4.71627 85.6114 4.71627H87.3288C87.3909 4.71627 87.4408 4.7425 87.4781 4.79493C87.5278 4.83425 87.5528 4.88668 87.5528 4.95223V5.54211C87.5528 5.58144 87.5652 5.60766 87.5901 5.62076C87.6149 5.63387 87.6399 5.62076 87.6648 5.58144C88.2123 4.8998 88.9279 4.55897 89.8116 4.55897C90.6951 4.55897 91.4418 4.80148 92.0517 5.2865C92.6614 5.77151 93.1032 6.4466 93.377 7.31177ZM90.9503 12.1292C91.3236 11.5262 91.5103 10.7265 91.5103 9.7303C91.5103 8.77338 91.361 8.01963 91.0623 7.46907C90.7137 6.82676 90.1849 6.50559 89.4755 6.50559C88.8283 6.50559 88.3429 6.8202 88.0195 7.44941C87.7332 7.96064 87.5901 8.72093 87.5901 9.7303C87.5901 10.7659 87.7456 11.5524 88.0568 12.0898C88.3803 12.6666 88.847 12.955 89.4569 12.955C90.1164 12.955 90.6143 12.6797 90.9503 12.1292ZM100.255 4.5983C100.654 4.5983 101.002 4.68351 101.301 4.85391C101.4 4.90634 101.438 5.00466 101.413 5.14886L101.096 6.91851C101.083 7.07581 100.996 7.1217 100.834 7.05615C100.648 6.9906 100.43 6.95784 100.181 6.95784C100.019 6.95784 99.8947 6.9644 99.8075 6.9775C99.2848 7.00372 98.8493 7.20035 98.5007 7.56738C98.1523 7.92132 97.9781 8.38667 97.9781 8.96345V14.528C97.9781 14.5936 97.9532 14.6526 97.9034 14.705C97.866 14.7443 97.8163 14.764 97.754 14.764H96.0366C95.9745 14.764 95.9185 14.7443 95.8686 14.705C95.8313 14.6526 95.8126 14.5936 95.8126 14.528V4.95223C95.8126 4.88668 95.8313 4.83425 95.8686 4.79493C95.9185 4.7425 95.9745 4.71627 96.0366 4.71627H97.754C97.8163 4.71627 97.866 4.7425 97.9034 4.79493C97.9532 4.83425 97.9781 4.88668 97.9781 4.95223V5.83706C97.9781 5.88949 97.9843 5.92227 97.9967 5.93537C98.0217 5.93537 98.0466 5.91571 98.0714 5.87638C98.5941 5.02432 99.3221 4.5983 100.255 4.5983ZM110.695 8.60952C110.744 8.93722 110.769 9.30427 110.769 9.71063L110.751 10.3202C110.751 10.4775 110.676 10.5561 110.527 10.5561H104.684C104.621 10.5561 104.59 10.5889 104.59 10.6545C104.628 11.087 104.684 11.382 104.758 11.5393C105.057 12.4831 105.785 12.9616 106.942 12.9747C107.789 12.9747 108.461 12.6076 108.959 11.8735C109.008 11.7949 109.071 11.7556 109.145 11.7556C109.195 11.7556 109.239 11.7752 109.276 11.8146L110.433 12.8174C110.545 12.9091 110.564 13.014 110.489 13.132C110.103 13.7088 109.587 14.1544 108.94 14.469C108.305 14.7836 107.596 14.9409 106.812 14.9409C105.841 14.9409 105.013 14.7116 104.329 14.2527C103.657 13.7939 103.165 13.1516 102.854 12.3258C102.568 11.6179 102.425 10.6348 102.425 9.37636C102.425 8.61607 102.5 7.99997 102.649 7.52806C102.898 6.61047 103.364 5.88949 104.049 5.36515C104.746 4.82769 105.58 4.55897 106.55 4.55897C109.002 4.55897 110.383 5.90915 110.695 8.60952ZM106.55 6.52525C106.09 6.52525 105.704 6.64979 105.393 6.89885C105.094 7.1348 104.883 7.46907 104.758 7.90165C104.684 8.1245 104.634 8.41289 104.609 8.76682C104.584 8.83237 104.609 8.86513 104.684 8.86513H108.473C108.535 8.86513 108.567 8.83237 108.567 8.76682C108.542 8.43911 108.504 8.19004 108.455 8.01963C108.343 7.54772 108.119 7.18069 107.783 6.91851C107.459 6.65634 107.048 6.52525 106.55 6.52525ZM116.149 14.882C115.365 14.882 114.675 14.764 114.077 14.528C113.492 14.279 113.038 13.9447 112.714 13.5252C112.391 13.0926 112.229 12.6142 112.229 12.0898V11.9129C112.229 11.8473 112.248 11.7949 112.285 11.7556C112.335 11.7031 112.391 11.6769 112.453 11.6769H114.096C114.158 11.6769 114.208 11.7031 114.245 11.7556C114.295 11.7949 114.32 11.8473 114.32 11.9129V11.9522C114.32 12.2799 114.488 12.5683 114.824 12.8174C115.172 13.0533 115.608 13.1713 116.131 13.1713C116.628 13.1713 117.033 13.0664 117.344 12.8567C117.655 12.6338 117.811 12.3586 117.811 12.0308C117.811 11.7293 117.68 11.5065 117.419 11.3623C117.17 11.205 116.759 11.0411 116.187 10.8707L115.477 10.6348C114.843 10.4382 114.307 10.2284 113.872 10.0056C113.436 9.78273 113.069 9.48124 112.77 9.10109C112.472 8.70783 112.322 8.2097 112.322 7.60671C112.322 6.68912 112.665 5.96159 113.349 5.42414C114.034 4.87358 114.936 4.5983 116.056 4.5983C116.815 4.5983 117.481 4.72938 118.053 4.99155C118.626 5.24061 119.068 5.59454 119.379 6.05335C119.69 6.49903 119.845 7.01027 119.845 7.58705C119.845 7.6526 119.821 7.71158 119.771 7.76401C119.733 7.80334 119.684 7.823 119.621 7.823H118.035C117.973 7.823 117.917 7.80334 117.867 7.76401C117.829 7.71158 117.811 7.6526 117.811 7.58705C117.811 7.24622 117.649 6.9644 117.325 6.74155C117.014 6.50559 116.585 6.38762 116.037 6.38762C115.552 6.38762 115.154 6.48593 114.843 6.68256C114.544 6.86608 114.395 7.12824 114.395 7.46907C114.395 7.78368 114.538 8.02619 114.824 8.1966C115.123 8.3539 115.614 8.53086 116.299 8.72749L116.709 8.84547C117.369 9.0552 117.923 9.27149 118.371 9.49434C118.819 9.70407 119.198 10.0056 119.509 10.3988C119.821 10.779 119.976 11.2771 119.976 11.8932C119.976 12.8239 119.628 13.5579 118.931 14.0954C118.234 14.6197 117.307 14.882 116.149 14.882ZM125.173 14.882C124.389 14.882 123.698 14.764 123.101 14.528C122.516 14.279 122.062 13.9447 121.738 13.5252C121.415 13.0926 121.253 12.6142 121.253 12.0898V11.9129C121.253 11.8473 121.272 11.7949 121.309 11.7556C121.359 11.7031 121.415 11.6769 121.477 11.6769H123.12C123.182 11.6769 123.232 11.7031 123.269 11.7556C123.319 11.7949 123.344 11.8473 123.344 11.9129V11.9522C123.344 12.2799 123.512 12.5683 123.848 12.8174C124.196 13.0533 124.632 13.1713 125.154 13.1713C125.652 13.1713 126.057 13.0664 126.368 12.8567C126.679 12.6338 126.835 12.3586 126.835 12.0308C126.835 11.7293 126.704 11.5065 126.443 11.3623C126.194 11.205 125.783 11.0411 125.21 10.8707L124.501 10.6348C123.866 10.4382 123.331 10.2284 122.896 10.0056C122.46 9.78273 122.093 9.48124 121.794 9.10109C121.496 8.70783 121.346 8.2097 121.346 7.60671C121.346 6.68912 121.689 5.96159 122.373 5.42414C123.057 4.87358 123.96 4.5983 125.08 4.5983C125.839 4.5983 126.505 4.72938 127.077 4.99155C127.65 5.24061 128.092 5.59454 128.403 6.05335C128.714 6.49903 128.869 7.01027 128.869 7.58705C128.869 7.6526 128.844 7.71158 128.795 7.76401C128.757 7.80334 128.708 7.823 128.645 7.823H127.059C126.996 7.823 126.94 7.80334 126.891 7.76401C126.853 7.71158 126.835 7.6526 126.835 7.58705C126.835 7.24622 126.673 6.9644 126.349 6.74155C126.038 6.50559 125.609 6.38762 125.061 6.38762C124.576 6.38762 124.178 6.48593 123.866 6.68256C123.568 6.86608 123.418 7.12824 123.418 7.46907C123.418 7.78368 123.561 8.02619 123.848 8.1966C124.146 8.3539 124.638 8.53086 125.322 8.72749L125.733 8.84547C126.393 9.0552 126.947 9.27149 127.395 9.49434C127.843 9.70407 128.222 10.0056 128.533 10.3988C128.844 10.779 129 11.2771 129 11.8932C129 12.8239 128.652 13.5579 127.955 14.0954C127.258 14.6197 126.331 14.882 125.173 14.882ZM44 27.7957L48.3117 25.8462V25.0954L44 23.1512V24.1335L47.1593 25.3679L47.4523 25.4656L47.1593 25.5531L44 26.808V27.7957ZM55.3208 25.9799V26.0879C55.3208 26.4857 55.3696 26.8577 55.4673 27.2041C55.5649 27.5471 55.7049 27.8454 55.8872 28.099C56.0663 28.3528 56.286 28.5517 56.5464 28.6957C56.8068 28.8398 57.0982 28.9117 57.4205 28.9117C57.6126 28.9117 57.7916 28.8895 57.9577 28.8448C58.1237 28.8037 58.275 28.7437 58.4117 28.6649C58.4996 28.6134 58.5811 28.5534 58.6559 28.4848C58.734 28.4163 58.8073 28.3407 58.8756 28.2586V28.7368C58.8756 28.9768 58.8431 29.1895 58.778 29.3746C58.7129 29.5598 58.6201 29.7141 58.4996 29.8375C58.376 29.9645 58.2278 30.0604 58.0553 30.1256C57.8828 30.1907 57.689 30.2233 57.4742 30.2233C57.3538 30.2233 57.2333 30.2096 57.1129 30.1822C56.9925 30.1581 56.8719 30.117 56.7515 30.0587C56.6311 30.0004 56.5123 29.9215 56.3951 29.8221C56.2779 29.7261 56.1639 29.6077 56.0532 29.4673L55.5845 30.0381C55.7049 30.2198 55.8481 30.3725 56.0141 30.4959C56.1835 30.6194 56.3592 30.717 56.5415 30.789C56.7206 30.8645 56.8981 30.9177 57.0738 30.9485C57.2495 30.9829 57.4058 31 57.5426 31C57.8746 31 58.1773 30.9485 58.4508 30.8456C58.7243 30.7428 58.9603 30.5919 59.1588 30.393C59.3542 30.1941 59.5055 29.9524 59.613 29.6678C59.7236 29.3832 59.779 29.0575 59.779 28.6906V23.2437H58.9587L58.9147 23.8506C58.8528 23.7683 58.7861 23.6929 58.7145 23.6243C58.6461 23.5558 58.5729 23.4957 58.4948 23.4443C58.3516 23.3448 58.1904 23.2694 58.0113 23.218C57.8356 23.1666 57.6418 23.1409 57.4302 23.1409C57.1015 23.1409 56.8068 23.2111 56.5464 23.3517C56.286 23.4923 56.0647 23.6878 55.8824 23.9381C55.7 24.1884 55.5601 24.4884 55.4624 24.8382C55.368 25.1844 55.3208 25.5651 55.3208 25.9799ZM56.2242 26.0879V25.9799C56.2242 25.7092 56.2502 25.452 56.3023 25.2085C56.3576 24.9615 56.4439 24.7438 56.5611 24.5552C56.675 24.3701 56.8215 24.2226 57.0006 24.113C57.1829 24.0033 57.401 23.9483 57.6549 23.9483C57.8046 23.9483 57.9413 23.969 58.065 24.0101C58.1888 24.0478 58.301 24.1009 58.402 24.1696C58.5029 24.2415 58.5924 24.3256 58.6705 24.4215C58.7487 24.5176 58.8171 24.6239 58.8756 24.7405V27.2916C58.8171 27.4115 58.7487 27.5214 58.6705 27.6208C58.5924 27.7202 58.5045 27.8059 58.4069 27.878C58.306 27.9499 58.192 28.0065 58.065 28.0476C57.9413 28.0854 57.8014 28.1042 57.6452 28.1042C57.3945 28.1042 57.1797 28.051 57.0006 27.9448C56.8215 27.835 56.675 27.6877 56.5611 27.5024C56.4439 27.3173 56.3576 27.103 56.3023 26.8596C56.2502 26.616 56.2242 26.3589 56.2242 26.0879ZM70.4651 28.8089H71.4075V28.7266C71.3488 28.5722 71.3032 28.3923 71.2707 28.1865C71.2382 27.9774 71.2219 27.7802 71.2219 27.595V25.0079C71.2219 24.6958 71.1682 24.4232 71.0608 24.1901C70.9534 23.9569 70.8068 23.7614 70.6213 23.6037C70.4325 23.4495 70.2095 23.3346 69.9524 23.2592C69.6952 23.1802 69.4168 23.1409 69.1173 23.1409C68.7886 23.1409 68.4939 23.1888 68.2335 23.2849C67.9763 23.3809 67.7581 23.5061 67.5792 23.6603C67.3969 23.818 67.2569 23.9947 67.1592 24.1901C67.0648 24.3856 67.016 24.5844 67.0128 24.7867H67.921C67.921 24.6701 67.947 24.5587 67.9991 24.4524C68.0544 24.3427 68.131 24.2483 68.2286 24.1696C68.3263 24.0906 68.4451 24.0273 68.5851 23.9792C68.7283 23.9312 68.8894 23.9072 69.0685 23.9072C69.2606 23.9072 69.4332 23.9329 69.5861 23.9843C69.7424 24.0358 69.8742 24.1078 69.9816 24.2005C70.0891 24.2964 70.1721 24.4113 70.2307 24.545C70.2892 24.6787 70.3185 24.8295 70.3185 24.9976V25.4349H69.3322C68.9643 25.4349 68.6306 25.4725 68.3311 25.5479C68.035 25.6233 67.7809 25.7365 67.5693 25.8874C67.3579 26.0417 67.1935 26.2337 67.0763 26.4635C66.9622 26.6933 66.9053 26.9607 66.9053 27.2659C66.9053 27.499 66.9476 27.7167 67.0322 27.9191C67.1201 28.118 67.2439 28.2893 67.4033 28.4334C67.5596 28.5808 67.75 28.6975 67.9747 28.7832C68.2026 28.8688 68.4564 28.9117 68.7365 28.9117C68.909 28.9117 69.0718 28.8928 69.2247 28.8552C69.3777 28.8174 69.5226 28.766 69.6593 28.7009C69.7928 28.6357 69.9149 28.5603 70.0256 28.4746C70.1395 28.3888 70.242 28.2979 70.3332 28.202C70.3429 28.3186 70.3576 28.4316 70.3772 28.5414C70.3999 28.6478 70.4292 28.7368 70.4651 28.8089ZM68.8683 28.0836C68.6925 28.0836 68.5379 28.0597 68.4044 28.0117C68.271 27.9636 68.1603 27.8968 68.0723 27.8111C67.9844 27.7288 67.9178 27.6294 67.8722 27.5127C67.8299 27.3961 67.8087 27.2693 67.8087 27.1322C67.8087 26.9881 67.8331 26.8596 67.8819 26.7464C67.934 26.6332 68.0088 26.5354 68.1066 26.4533C68.2432 26.3365 68.4272 26.2509 68.6583 26.1959C68.8927 26.1377 69.1662 26.1086 69.4786 26.1086H70.3185V27.235C70.2665 27.3447 70.1948 27.451 70.1037 27.5538C70.0125 27.6532 69.9052 27.7424 69.7814 27.8214C69.6545 27.9002 69.5145 27.9636 69.3614 28.0117C69.2085 28.0597 69.0441 28.0836 68.8683 28.0836ZM78.9147 23.2437H78.1041V28.8089H78.9635V24.3804C78.9831 24.3256 79.0075 24.274 79.0367 24.2262C79.0693 24.1781 79.1067 24.1353 79.1491 24.0975C79.2044 24.0495 79.2711 24.0135 79.3492 23.9895C79.4307 23.9621 79.5251 23.9483 79.6324 23.9483C79.7302 23.9483 79.8147 23.9621 79.8864 23.9895C79.9612 24.0135 80.0231 24.053 80.0719 24.1078C80.124 24.166 80.1615 24.2398 80.1842 24.329C80.2103 24.4181 80.2232 24.521 80.2232 24.6375V28.8089H81.0827V24.6427C81.0827 24.6221 81.0827 24.6049 81.0827 24.5913C81.0827 24.5742 81.0827 24.5571 81.0827 24.5398C81.0925 24.4541 81.1119 24.377 81.1413 24.3085C81.1706 24.2364 81.2113 24.1729 81.2634 24.1182C81.3154 24.0666 81.3806 24.0255 81.4588 23.9947C81.5368 23.9638 81.6296 23.9483 81.737 23.9483C81.838 23.9483 81.9259 23.9621 82.0007 23.9895C82.0788 24.0169 82.144 24.058 82.196 24.113C82.2449 24.1712 82.2823 24.245 82.3084 24.3342C82.3344 24.4232 82.3475 24.5262 82.3475 24.6427V28.8089H83.2068V24.653C83.2068 24.3856 83.1775 24.1541 83.119 23.9586C83.0603 23.7597 82.9756 23.5986 82.865 23.4752C82.7642 23.3655 82.6404 23.2832 82.4939 23.2283C82.3475 23.17 82.1831 23.1409 82.0007 23.1409C81.8672 23.1443 81.7436 23.1631 81.6296 23.1974C81.5189 23.2318 81.418 23.278 81.3269 23.3363C81.2553 23.3877 81.1885 23.4478 81.1266 23.5163C81.0648 23.5849 81.0112 23.6586 80.9655 23.7375C80.9297 23.6517 80.8858 23.5746 80.8337 23.5061C80.7849 23.4374 80.7295 23.3791 80.6677 23.3312C80.583 23.2694 80.4837 23.2231 80.3698 23.1923C80.2591 23.158 80.1338 23.1409 79.9938 23.1409C79.7464 23.1443 79.5348 23.2009 79.3589 23.3106C79.1864 23.4203 79.0465 23.5729 78.9391 23.7683L78.9147 23.2437ZM90.1476 23.2437V24.0718H91.9446V27.986H90.1476V28.8089H94.5716V27.986H92.848V23.2437H90.1476ZM91.8274 21.783C91.8274 21.9373 91.8712 22.0659 91.9592 22.1687C92.0503 22.2717 92.187 22.3231 92.3694 22.3231C92.5483 22.3231 92.6835 22.2717 92.7746 22.1687C92.8658 22.0659 92.9114 21.9373 92.9114 21.783C92.9114 21.6972 92.8984 21.6184 92.8724 21.5464C92.8462 21.4743 92.8071 21.4144 92.7551 21.3663C92.7127 21.3218 92.6591 21.2875 92.5939 21.2635C92.5289 21.2361 92.4539 21.2224 92.3694 21.2224C92.2847 21.2224 92.2082 21.2361 92.1398 21.2635C92.0747 21.2875 92.021 21.3218 91.9787 21.3663C91.9266 21.4177 91.8875 21.4795 91.8615 21.5516C91.8387 21.6235 91.8274 21.7007 91.8274 21.783ZM101.512 28.8089H102.416V24.8176C102.478 24.6976 102.549 24.5878 102.631 24.4884C102.715 24.3889 102.806 24.3016 102.904 24.2262C103.024 24.1403 103.156 24.0735 103.299 24.0255C103.443 23.974 103.597 23.9483 103.763 23.9483C103.956 23.9483 104.125 23.9724 104.271 24.0204C104.421 24.0684 104.548 24.1455 104.652 24.2519C104.753 24.3582 104.83 24.4969 104.882 24.6684C104.934 24.8399 104.96 25.049 104.96 25.296V28.8089H105.863V25.2753C105.863 24.9051 105.819 24.5861 105.731 24.3187C105.647 24.0478 105.525 23.8249 105.365 23.65C105.206 23.4752 105.012 23.3465 104.784 23.2642C104.559 23.1821 104.309 23.1409 104.032 23.1409C103.827 23.1443 103.632 23.1769 103.446 23.2385C103.264 23.2968 103.094 23.3809 102.938 23.4906C102.834 23.5625 102.735 23.6483 102.64 23.7478C102.549 23.8437 102.465 23.95 102.386 24.0666L102.323 23.2437H101.512V28.8089ZM112.853 25.9799V26.0879C112.853 26.4857 112.902 26.8577 112.999 27.2041C113.097 27.5471 113.237 27.8454 113.419 28.099C113.598 28.3528 113.818 28.5517 114.078 28.6957C114.339 28.8398 114.63 28.9117 114.952 28.9117C115.144 28.9117 115.324 28.8895 115.49 28.8448C115.656 28.8037 115.807 28.7437 115.944 28.6649C116.032 28.6134 116.113 28.5534 116.188 28.4848C116.266 28.4163 116.339 28.3407 116.408 28.2586V28.7368C116.408 28.9768 116.375 29.1895 116.31 29.3746C116.245 29.5598 116.152 29.7141 116.032 29.8375C115.908 29.9645 115.76 30.0604 115.587 30.1256C115.415 30.1907 115.221 30.2233 115.006 30.2233C114.886 30.2233 114.765 30.2096 114.645 30.1822C114.524 30.1581 114.404 30.117 114.283 30.0587C114.163 30.0004 114.044 29.9215 113.927 29.8221C113.81 29.7261 113.696 29.6077 113.585 29.4673L113.116 30.0381C113.237 30.2198 113.38 30.3725 113.546 30.4959C113.715 30.6194 113.891 30.717 114.073 30.789C114.253 30.8645 114.43 30.9177 114.606 30.9485C114.781 30.9829 114.938 31 115.074 31C115.407 31 115.709 30.9485 115.983 30.8456C116.256 30.7428 116.492 30.5919 116.691 30.393C116.886 30.1941 117.037 29.9524 117.145 29.6678C117.256 29.3832 117.311 29.0575 117.311 28.6906V23.2437H116.491L116.447 23.8506C116.385 23.7683 116.318 23.6929 116.246 23.6243C116.178 23.5558 116.105 23.4957 116.027 23.4443C115.883 23.3448 115.722 23.2694 115.543 23.218C115.368 23.1666 115.174 23.1409 114.962 23.1409C114.633 23.1409 114.339 23.2111 114.078 23.3517C113.818 23.4923 113.596 23.6878 113.414 23.9381C113.232 24.1884 113.092 24.4884 112.994 24.8382C112.9 25.1844 112.853 25.5651 112.853 25.9799ZM113.756 26.0879V25.9799C113.756 25.7092 113.782 25.452 113.834 25.2085C113.89 24.9615 113.976 24.7438 114.093 24.5552C114.207 24.3701 114.353 24.2226 114.533 24.113C114.715 24.0033 114.933 23.9483 115.187 23.9483C115.337 23.9483 115.473 23.969 115.597 24.0101C115.721 24.0478 115.833 24.1009 115.934 24.1696C116.035 24.2415 116.124 24.3256 116.202 24.4215C116.281 24.5176 116.349 24.6239 116.408 24.7405V27.2916C116.349 27.4115 116.281 27.5214 116.202 27.6208C116.124 27.7202 116.036 27.8059 115.939 27.878C115.838 27.9499 115.724 28.0065 115.597 28.0476C115.473 28.0854 115.333 28.1042 115.177 28.1042C114.926 28.1042 114.711 28.051 114.533 27.9448C114.353 27.835 114.207 27.6877 114.093 27.5024C113.976 27.3173 113.89 27.103 113.834 26.8596C113.782 26.616 113.756 26.3589 113.756 26.0879ZM128.91 29.5855V28.8089H124.432V29.5855H128.91Z" fill="#AAAAAA"/>
</svg>
