<svg width="74" height="16" viewBox="0 0 74 16" fill="none" xmlns="http://www.w3.org/2000/svg">
<g clip-path="url(#clip0_26_5269)">
<path fill-rule="evenodd" clip-rule="evenodd" d="M1.62124 13.5832C0.00586491 13.1208 -0.268429 12.1663 0.469941 11.6163C1.15271 11.1063 2.31364 10.7256 2.31364 10.7256L7.10786 9.01095V10.9646L3.65769 12.2063C3.04757 12.429 2.95416 12.7378 3.45011 12.9004C3.94606 13.0629 4.84234 13.0169 5.45172 12.7972L7.10638 12.193V13.941C7.00185 13.9603 6.88398 13.9788 6.77648 13.9967C5.04997 14.2786 3.28091 14.1367 1.62124 13.5832ZM11.736 13.7866L17.1159 11.8642C17.7268 11.6415 17.8202 11.3342 17.3242 11.1716C16.8283 11.0091 15.932 11.0551 15.3226 11.2756L11.7375 12.5418V10.5237L11.9451 10.4531C12.7551 10.1908 13.5901 10.0134 14.4367 9.92392C15.8934 9.76285 17.6771 9.94619 19.0767 10.4776C20.655 10.9779 20.833 11.715 20.4319 12.2227C20.0308 12.7304 19.0478 13.0919 19.0478 13.0919L11.7375 15.7261L11.736 13.7866ZM12.3654 1.27445C15.1981 2.25348 16.1581 3.47226 16.1581 6.21859C16.1581 8.89441 14.5168 9.90907 12.4321 8.8959V3.90573C12.4321 3.32084 12.3254 2.78196 11.7798 2.62906C11.3616 2.49397 11.1022 2.88514 11.1022 3.47003V15.9584L7.75727 14.8896V0C9.1799 0.265726 11.2519 0.890703 12.3654 1.27148V1.27445ZM19.5564 14.943C19.5588 14.9627 19.5564 14.9826 19.5495 15.0011C19.5425 15.0196 19.5311 15.0361 19.5163 15.0492C19.4797 15.0718 19.437 15.0827 19.394 15.0803H19.1368V14.8139H19.4096C19.4401 14.8127 19.4705 14.8183 19.4985 14.8302C19.5183 14.8411 19.5344 14.8577 19.5447 14.8778C19.555 14.8979 19.559 14.9206 19.5564 14.943ZM19.741 15.5502C19.7336 15.5457 19.7274 15.5397 19.7226 15.5325C19.7179 15.5253 19.7148 15.5171 19.7135 15.5086C19.7081 15.4843 19.7056 15.4594 19.7061 15.4344L19.7009 15.3134C19.703 15.2693 19.6917 15.2255 19.6683 15.188C19.6527 15.1694 19.6339 15.1538 19.6127 15.142C19.6405 15.1239 19.6645 15.1004 19.6831 15.0729C19.7086 15.0293 19.7212 14.9794 19.7195 14.9289C19.7231 14.8809 19.7119 14.8329 19.6874 14.7915C19.6628 14.75 19.6262 14.7172 19.5823 14.6973C19.5267 14.6743 19.4668 14.6634 19.4066 14.6654H18.9759V15.6081H19.1368V15.2214H19.3903C19.4238 15.2195 19.4574 15.2246 19.4889 15.2362C19.5063 15.2462 19.5205 15.2609 19.5298 15.2786C19.5391 15.2964 19.5432 15.3164 19.5415 15.3364L19.549 15.4849C19.5493 15.5098 19.5515 15.5346 19.5556 15.5591C19.5579 15.5715 19.5619 15.5835 19.5675 15.5947L19.5734 15.6059H19.7528V15.5509L19.741 15.5502ZM18.6371 15.1568C18.6365 14.9704 18.7095 14.7914 18.8402 14.6588C18.904 14.5933 18.9802 14.5412 19.0644 14.5057C19.1485 14.4701 19.2389 14.4518 19.3303 14.4518C19.4216 14.4518 19.512 14.4701 19.5962 14.5057C19.6803 14.5412 19.7565 14.5933 19.8203 14.6588C19.9169 14.7572 19.9826 14.8819 20.0093 15.0174C20.0359 15.1529 20.0224 15.2932 19.9702 15.4211C19.9181 15.5489 19.8297 15.6586 19.716 15.7367C19.6022 15.8148 19.4682 15.8578 19.3303 15.8605C19.239 15.8605 19.1486 15.8423 19.0644 15.8069C18.9803 15.7714 18.904 15.7195 18.8402 15.6541C18.7097 15.5216 18.6367 15.3429 18.6371 15.1568ZM19.3303 16.003C19.44 16.0031 19.5487 15.9812 19.6498 15.9385C19.7509 15.8957 19.8424 15.8331 19.9189 15.7543C20.0752 15.5945 20.1627 15.3797 20.1627 15.1561C20.1627 14.9324 20.0752 14.7176 19.9189 14.5578C19.8423 14.4792 19.7507 14.4168 19.6496 14.3742C19.5485 14.3317 19.4399 14.3098 19.3303 14.3099C19.1645 14.313 19.0033 14.3647 18.8666 14.4586C18.7299 14.5525 18.6237 14.6844 18.561 14.8381C18.4984 14.9918 18.4821 15.1605 18.5142 15.3233C18.5463 15.4861 18.6254 15.636 18.7416 15.7543C18.8181 15.8331 18.9096 15.8957 19.0107 15.9385C19.1119 15.9812 19.2205 16.0031 19.3303 16.003Z" fill="#AAAAAA"/>
<path d="M72.0325 12.7972H71.8902V11.8211H71.564V11.6846H72.3602V11.8211H72.034L72.0325 12.7972ZM73.0192 12.5389L73.3239 11.6846H73.5463V12.7979H73.3981V11.8672L73.0607 12.7972H72.9703L72.6345 11.8672V12.7972H72.4936V11.6838H72.716L73.0192 12.5389ZM70.1362 3.18726H56.4956V6.88961C56.4956 6.88961 56.4541 8.31919 58.2199 8.31919H66.5577C66.8848 8.31651 67.2088 8.38251 67.5089 8.51292C67.9744 8.72075 68.4978 9.14383 68.4978 9.99743C68.4978 10.7634 68.1272 11.1984 67.7602 11.4418C67.4564 11.6384 67.1018 11.7416 66.7401 11.7387H56.4956V12.7779H67.9188C67.9188 12.7779 70.5135 12.6725 70.5135 10.0026C70.5135 8.64504 69.7218 7.97256 69.0093 7.643C68.549 7.43128 68.0481 7.32261 67.5415 7.32457H59.2778C59.1401 7.32639 59.0041 7.294 58.882 7.23031C58.7055 7.13456 58.5113 6.94454 58.5113 6.57044V4.21231H70.1362V3.18726ZM39.327 11.735V12.7742H45.1168C45.8089 12.7815 46.4802 12.5382 47.0072 12.0891C47.2791 11.8581 47.4959 11.5692 47.6419 11.2435C47.7878 10.9178 47.8592 10.5636 47.8509 10.2067V5.78959C47.8479 5.54804 47.8997 5.30896 48.0025 5.09038C48.1052 4.87181 48.2562 4.67943 48.4439 4.52776C48.7105 4.31886 49.0403 4.20754 49.3788 4.21231H54.4265V3.18726H48.415C48.415 3.18726 45.8204 3.22882 45.8204 5.97664V10.1013C45.8249 10.4391 45.734 10.7714 45.5579 11.0596C45.4306 11.2727 45.2487 11.4479 45.031 11.5671C44.8133 11.6862 44.5678 11.745 44.3199 11.7373L39.327 11.735ZM25.9592 3.18726V4.21231H36.2786C36.5657 4.20985 36.8497 4.27094 37.1104 4.39119C37.5196 4.58343 37.9792 4.97905 37.9792 5.78143C37.9792 6.56079 37.5196 6.95048 37.1104 7.14346C36.8454 7.26524 36.5569 7.32707 36.2653 7.32457H28.6117C28.1587 7.32034 27.7109 7.422 27.304 7.62147C26.6672 7.94138 25.9592 8.69477 25.9592 9.9373V12.7579H27.9453V9.94992C27.9439 9.76726 27.9769 9.58598 28.0424 9.4155C28.2062 8.99464 28.6206 8.31919 29.5896 8.31919H37.3069C37.5664 8.3206 37.8249 8.28587 38.0749 8.21602C38.7836 8.01413 39.9653 7.43072 39.9653 5.78143C39.9653 3.21843 37.4173 3.18726 37.4173 3.18726H25.9592Z" fill="#AAAAAA"/>
</g>
<defs>
<clipPath id="clip0_26_5269">
<rect width="73.4634" height="16" fill="white" transform="translate(0.0800781)"/>
</clipPath>
</defs>
</svg>
