<svg width="32" height="33" viewBox="0 0 32 33" fill="none" xmlns="http://www.w3.org/2000/svg">
<path d="M28.5714 0H3.42857C1.53571 0 0 1.5401 0 3.43837V28.6531C0 30.5513 1.53571 32.0914 3.42857 32.0914H28.5714C30.4643 32.0914 32 30.5513 32 28.6531V3.43837C32 1.5401 30.4643 0 28.5714 0ZM25.0786 11.3753C25.0929 11.5758 25.0929 11.7836 25.0929 11.9841C25.0929 18.1947 20.3786 25.3508 11.7643 25.3508C9.10714 25.3508 6.64286 24.5772 4.57143 23.2448C4.95 23.2878 5.31429 23.3021 5.7 23.3021C7.89286 23.3021 9.90714 22.5571 11.5143 21.2964C9.45714 21.2534 7.72857 19.8995 7.13571 18.0371C7.85714 18.1445 8.50714 18.1446 9.25 17.9511C7.10714 17.5142 5.5 15.6231 5.5 13.338V13.2807C6.12143 13.6317 6.85 13.8466 7.61429 13.8752C6.97173 13.4466 6.44499 12.8651 6.08105 12.1827C5.71711 11.5002 5.52731 10.738 5.52857 9.9641C5.52857 9.09018 5.75714 8.2879 6.16429 7.59306C8.47143 10.444 11.9357 12.3065 15.8214 12.5071C15.1571 9.31941 17.5357 6.73347 20.3929 6.73347C21.7429 6.73347 22.9571 7.29937 23.8143 8.21626C24.8714 8.01569 25.8857 7.62171 26.7857 7.08447C26.4357 8.17328 25.7 9.09018 24.7286 9.67041C25.6714 9.57012 26.5857 9.30508 27.4286 8.93975C26.7929 9.87814 25.9929 10.7091 25.0786 11.3753Z" fill="#AAAAAA"/>
</svg>
