<svg width="32" height="33" viewBox="0 0 32 33" fill="none" xmlns="http://www.w3.org/2000/svg">
<path d="M28.5714 0H3.42857C2.51926 0 1.64719 0.362256 1.00421 1.00707C0.361223 1.65189 0 2.52646 0 3.43837L0 28.6531C0 29.565 0.361223 30.4395 1.00421 31.0844C1.64719 31.7292 2.51926 32.0914 3.42857 32.0914H13.2321V21.1811H8.73214V16.0457H13.2321V12.1317C13.2321 7.67974 15.875 5.22059 19.9229 5.22059C21.8614 5.22059 23.8886 5.56729 23.8886 5.56729V9.93688H21.655C19.4543 9.93688 18.7679 11.3065 18.7679 12.7112V16.0457H23.6807L22.895 21.1811H18.7679V32.0914H28.5714C29.4807 32.0914 30.3528 31.7292 30.9958 31.0844C31.6388 30.4395 32 29.565 32 28.6531V3.43837C32 2.52646 31.6388 1.65189 30.9958 1.00707C30.3528 0.362256 29.4807 0 28.5714 0Z" fill="#AAAAAA"/>
</svg>
