<svg width="86" height="16" viewBox="0 0 86 16" fill="none" xmlns="http://www.w3.org/2000/svg">
<g opacity="0.8">
<g clip-path="url(#clip0_189_6013)">
<path d="M0 2.27273L6.45 1.38182V7.65454H0M7.22689 1.25455L15.7727 0V7.6H7.22689M0 8.31636H6.45V14.6073L0 13.6982M7.22689 8.4H15.7727V15.9273L7.22689 14.7091M20.5966 3.09091L21.818 3.09818L23.715 10.0255C23.8505 10.5091 23.9499 11.0036 24.0113 11.5055C24.6726 8.66909 25.576 5.90545 26.342 3.10545L27.3989 3.10909L29.0322 9.10909C29.2364 9.90545 29.502 10.6909 29.5833 11.5091C30.1795 8.67273 31.0341 5.90909 31.7152 3.10909L32.9185 3.10364L30.2445 12.74H28.9437L27.0105 5.81273C26.9021 5.44 26.8569 5.05455 26.8226 4.66727C26.772 5 26.725 5.33636 26.6419 5.66182L24.6907 12.7164C24.2571 12.74 23.8234 12.7418 23.3898 12.7382L20.6075 3.10182M33.605 3.16364C33.628 2.98009 33.7196 2.81225 33.8613 2.69429C34.0029 2.57633 34.1838 2.51711 34.3673 2.5287C34.5508 2.54029 34.723 2.6218 34.8488 2.75665C34.9747 2.8915 35.0448 3.06954 35.0448 3.25455C35.0448 3.43955 34.9747 3.61759 34.8488 3.75244C34.723 3.88729 34.5508 3.96881 34.3673 3.98039C34.1838 3.99198 34.0029 3.93276 33.8613 3.8148C33.7196 3.69684 33.628 3.529 33.605 3.34545M33.7676 5.81818H34.8517V12.7273H33.7676M37.7713 6.93091C38.391 5.82182 39.8364 5.30909 41.0018 5.82182C41.9286 6.18545 42.2737 7.26545 42.3026 8.18545C42.3532 9.69818 42.3116 11.2127 42.3243 12.7255C41.9629 12.7255 41.6016 12.7255 41.2402 12.7236C41.2222 11.2691 41.2764 9.81454 41.215 8.36C41.186 7.64 40.8825 6.77455 40.1038 6.59091C38.9656 6.24545 37.8328 7.27636 37.7966 8.40909C37.7641 9.84545 37.7948 11.2873 37.784 12.7255H36.7V5.81818H37.784L37.7695 6.93091M48.7815 2.54545H49.8655V12.7273H48.7851L48.7544 11.6182C47.9721 13.0327 45.8817 13.3455 44.6893 12.2964C43.8347 11.5564 43.5745 10.3509 43.6197 9.26C43.6287 8.15454 43.9901 6.98727 44.8663 6.26C46.0046 5.31818 48.01 5.37273 48.805 6.75636L48.7978 2.53818M46.4671 6.55636C45.5999 6.69455 45.0127 7.49091 44.8501 8.31454C44.6369 9.30727 44.6748 10.46 45.2963 11.2964C45.9684 12.1945 47.4463 12.2145 48.169 11.3655C48.6568 10.8527 48.7978 10.1182 48.8014 9.43818C48.8068 8.71091 48.8682 7.89273 48.3895 7.29273C47.9667 6.68727 47.1789 6.41455 46.4743 6.56545M54.021 5.65636C54.9876 5.57091 56.0626 5.72364 56.7853 6.42727C57.6055 7.19091 57.8513 8.37273 57.8043 9.44545C57.7916 10.4182 57.4339 11.4091 56.7257 12.0818C55.2478 13.4345 52.4979 13.1364 51.5584 11.2782C50.8213 9.72 50.9695 7.56909 52.3173 6.38727C52.7997 5.97636 53.4103 5.78727 54.0156 5.65273M53.8205 6.64182C52.2305 7.13273 51.9595 9.22364 52.4564 10.6055C52.8539 11.8273 54.3896 12.3691 55.5097 11.7982C56.2595 11.4527 56.601 10.5982 56.6733 9.81636C56.7546 8.90727 56.6823 7.87091 56.0409 7.16182C55.4989 6.54727 54.5811 6.41636 53.8187 6.64M58.3571 5.81818H59.4881L60.8251 10.7636C60.9155 11.0727 60.9516 11.3927 60.9841 11.7127C61.4954 9.73091 62.1404 7.78545 62.7222 5.82182L63.7105 5.82727C64.2073 7.79091 64.8252 9.71818 65.2371 11.7182C65.6617 9.75454 66.267 7.80909 66.7367 5.86364C67.0981 5.84545 67.463 5.84 67.828 5.83636L65.7864 12.7455H64.6626C64.1748 10.8727 63.5424 9.03636 63.145 7.14545C62.6752 9.03636 62.0194 10.8727 61.4828 12.7455H60.3987L58.3571 5.83636M70.4622 5.63636C71.1397 5.58909 71.8299 5.65455 72.4676 5.90545C72.6447 6.24364 72.5074 6.68727 72.5489 7.06909C71.7901 6.59091 70.7422 6.28727 69.9111 6.77273C69.3456 7.08182 69.3185 7.99636 69.8696 8.33636C70.6591 8.85091 71.6618 8.98545 72.3629 9.64545C73.1361 10.3945 72.9482 11.8273 72.0431 12.3909C70.941 13.0964 69.4956 13.0273 68.3393 12.4891L68.3303 11.2673C69.1505 11.8964 70.2996 12.2455 71.2933 11.7982C71.866 11.5073 71.8949 10.6236 71.3908 10.2527C70.6013 9.66727 69.5118 9.57454 68.8253 8.84364C68.1333 8.14182 68.258 6.84364 69.0294 6.26182C69.4269 5.89273 69.9689 5.78182 70.4748 5.63818M78.0504 2.94545L78.4298 2.89091V12.7273H77.3602L77.3729 4.52727C76.6918 5 75.9564 5.40727 75.1506 5.63273L75.1633 4.54182C76.2112 4.18364 77.1687 3.60545 78.036 2.93091M82.3866 2.92727C83.326 2.76909 84.3739 3.11455 84.934 3.91818C85.729 5.04545 85.8013 6.5 85.841 7.82727C85.8139 9.23454 85.6603 10.7545 84.7678 11.9C83.9457 12.9855 82.2565 13.24 81.1544 12.4418C80.26 11.7927 79.9077 10.66 79.7505 9.60545C79.5699 8.04727 79.5879 6.40545 80.1245 4.93273C80.4642 3.92364 81.3025 3.06 82.3829 2.93273M82.2167 3.90909C81.2537 4.30182 80.9773 5.44727 80.8436 6.38182C80.7027 7.68 80.6702 9.01818 80.9773 10.2909C81.1309 10.92 81.4543 11.5873 82.074 11.8636C82.7786 12.22 83.7181 11.9127 84.0794 11.2145C84.6702 10.1873 84.6847 8.96 84.6937 7.79636C84.6702 6.66909 84.6251 5.46909 84.0072 4.48727C83.6404 3.89091 82.8509 3.65091 82.2113 3.90909" fill="white"/>
</g>
</g>
<defs>
<clipPath id="clip0_189_6013">
<rect width="86" height="16" rx="4" fill="white"/>
</clipPath>
</defs>
</svg>
