<svg width="86" height="16" viewBox="0 0 86 16" fill="none" xmlns="http://www.w3.org/2000/svg">
<path d="M73.7859 14.4528V1.5479H72.3533V12.1481L64.5672 1.5398L63.2592 1.53793V14.4466H64.6918V4.07556L72.3533 14.4528H73.7859ZM55.8033 1.24829C52.1743 1.24829 49.6379 4.02386 49.6379 7.99413C49.6379 11.9737 52.1743 14.7462 55.8033 14.7462C59.4284 14.7462 61.9567 11.9712 61.9567 7.99413C61.9567 4.02075 59.4284 1.24829 55.8033 1.24829ZM55.8033 13.3821C53.0395 13.3821 51.1011 11.1665 51.1011 7.99475C51.1011 4.82552 53.0389 2.60992 55.8033 2.60992C58.5639 2.60992 60.4892 4.82552 60.4892 7.99475C60.4892 11.1665 58.5633 13.3821 55.8033 13.3821ZM75.4054 1.53918V14.4528H84.4995V13.1884H76.8381V8.41707H83.9389V7.15261H76.8381V2.80177H84.4372V1.53918H75.4054Z" fill="#AAAAAA"/>
<path d="M45.1331 1.54785H46.8772L42.3301 7.70071L47.3132 14.4652H45.5691L41.4581 8.8655L37.3471 14.4652H35.6653L40.5861 7.70071L36.1013 1.54785H37.7831L41.4581 6.56706L45.1331 1.54785Z" fill="#AAAAAA"/>
<path d="M30.813 1.24951C27.1854 1.24951 24.649 4.02509 24.649 7.99535C24.649 11.975 27.1847 14.7474 30.813 14.7474C34.4382 14.7474 36.9665 11.9737 36.9665 7.99535C36.9665 4.02197 34.4382 1.24951 30.813 1.24951ZM30.813 13.3833C28.0487 13.3833 26.1128 11.1677 26.1128 7.9966C26.1128 4.82736 28.0487 2.61238 30.813 2.61238C33.573 2.61238 35.499 4.82736 35.499 7.9966C35.499 11.1683 33.5724 13.3833 30.813 13.3833ZM1.78662 14.4653H3.4871L7.61059 8.86552L11.7341 14.4653H13.4346L8.46394 7.70073L12.9985 1.54787H11.2981L7.60436 6.56708L3.91689 1.54787H2.22264L6.75101 7.70073L1.78662 14.4653Z" fill="#AAAAAA"/>
<path d="M22.8776 8.18715C22.6213 7.97012 22.3367 7.78887 22.0317 7.64836C22.9691 7.13946 23.5839 6.17835 23.5839 5.06214C23.5839 4.23557 23.2787 1.54907 19.385 1.54907H14.1397V7.11766H12.3919C12.0701 7.54286 11.7574 7.97482 11.4539 8.41326H14.1397V14.4646L19.385 14.4652C22.2266 14.4652 23.9919 13.022 23.9919 10.6943C23.9919 9.67709 23.6076 8.81315 22.8776 8.18715ZM15.5898 2.89575H19.385C20.4128 2.89575 22.1326 3.15113 22.1326 4.94878C22.1326 6.30729 21.1304 7.11704 19.385 7.11704H15.5898V2.89575ZM19.385 13.1173H15.5898V8.41451H19.385C20.8245 8.41451 22.5456 8.81253 22.5456 10.6656C22.5456 12.7971 20.566 13.1173 19.385 13.1173Z" fill="#AAAAAA"/>
</svg>
