<svg width="120" height="28" viewBox="0 0 120 28" fill="none" xmlns="http://www.w3.org/2000/svg">
<path d="M25.4223 13.6232C25.4223 16.7563 24.1815 19.7611 21.9726 21.9769C19.7637 24.1927 16.7676 25.4379 13.6433 25.4389C10.519 25.4398 7.52227 24.1963 5.31208 21.9818C3.1019 19.7673 1.85925 16.7632 1.85742 13.6301C1.8556 10.497 3.09474 7.4914 5.30234 5.27434C7.50994 3.05727 10.5052 1.81025 13.6295 1.8075C16.7539 1.80475 19.7513 3.04651 21.9628 5.25969C24.1743 7.47287 25.4187 10.4763 25.4223 13.6094" fill="black"/>
<path d="M13.8433 0.543585C10.2705 0.546768 6.84525 1.97284 4.32075 4.50819C1.79626 7.04354 0.379252 10.4806 0.38135 14.0635C0.38342 17.6464 1.80446 21.0818 4.33198 23.6142C6.85949 26.1467 10.2865 27.5687 13.8594 27.5676C17.4322 27.5666 20.8584 26.1425 23.3844 23.6086C25.9104 21.0746 27.3294 17.6384 27.3294 14.0554V14.0397C27.3252 10.4567 25.9021 7.02215 23.3731 4.49125C20.8441 1.96035 17.4162 0.540372 13.8433 0.543585ZM13.7818 3.43136C16.5803 3.42882 19.2652 4.54103 21.2461 6.52341C23.227 8.50578 24.3416 11.196 24.3449 14.0024V14.0146C24.3449 16.8209 23.2334 19.5124 21.2548 21.497C19.2763 23.4817 16.5927 24.597 13.7943 24.5978C10.9958 24.5987 8.31163 23.4849 6.33195 21.5013C4.35228 19.5178 3.23923 16.827 3.23759 14.0207C3.236 11.2144 4.3459 8.52238 6.32322 6.53659C8.30054 4.5508 10.9834 3.43385 13.7818 3.43136Z" fill="#FFCE35"/>
<path d="M11.975 22.7957L14.2724 20.4919L9.84842 16.0555C9.66215 15.8687 9.46036 15.6352 9.3517 15.3705C9.10333 14.8413 8.99468 14.0163 9.60006 13.4092C10.3451 12.662 11.3386 12.9733 12.301 13.9384L16.5542 18.2036L18.8515 15.8998L14.4121 11.4478C14.2258 11.261 14.0085 10.9808 13.8998 10.7473C13.6049 10.1402 13.6204 9.37747 14.1637 8.83264C14.9243 8.06989 15.9178 8.35008 17.0199 9.45529L21.1489 13.596L23.4462 11.2921L18.9757 6.809C16.7094 4.53631 14.5828 4.61414 13.1237 6.07739C12.5649 6.63778 12.2234 7.2293 12.0526 7.89866C11.9129 8.47461 11.8664 9.11284 11.9905 9.79776L11.9595 9.82889C10.8419 9.3619 9.56901 9.64209 8.59108 10.6228C7.28718 11.9304 7.33375 13.3158 7.48898 14.1252L7.44242 14.1719L6.30926 13.2535L4.32236 15.246C5.02088 15.8842 5.85911 16.6625 6.80599 17.6121L11.975 22.7957Z" fill="white"/>
<path d="M31.7401 19.4215H34.8332V13.4483C34.8332 13.1968 34.8541 12.9034 34.9586 12.6519C35.1467 12.1279 35.6274 11.4992 36.4425 11.4992C37.4456 11.4992 37.9054 12.3794 37.9054 13.6789V19.4215H40.9986V13.4274C40.9986 13.1759 41.0404 12.8405 41.124 12.61C41.3329 12.0022 41.8554 11.4992 42.5869 11.4992C43.611 11.4992 44.0917 12.3585 44.0917 13.8465V19.4215H47.1848V13.3854C47.1848 10.3255 45.7009 8.94226 43.7364 8.94226C42.984 8.94226 42.357 9.10993 41.7927 9.44526C41.312 9.73868 40.8523 10.1369 40.4761 10.6818H40.4343C39.9954 9.61293 38.9504 8.94226 37.6337 8.94226C35.8782 8.94226 34.9795 9.90635 34.5406 10.5561H34.4779L34.3316 9.17281H31.6565C31.6983 10.074 31.7401 11.1639 31.7401 12.4423V19.4215Z" fill="black"/>
<path d="M58.1902 15.3136C58.232 15.0831 58.2947 14.601 58.2947 14.0561C58.2947 11.5201 57.0407 8.94226 53.7386 8.94226C50.1857 8.94226 48.5764 11.8136 48.5764 14.4124C48.5764 17.619 50.5619 19.652 54.0312 19.652C55.4105 19.652 56.6854 19.4215 57.7304 19.0023L57.3124 16.8436C56.4555 17.116 55.5777 17.2627 54.491 17.2627C53.0071 17.2627 51.7113 16.634 51.6068 15.3136H58.1902ZM51.5859 13.1339C51.6695 12.2747 52.2129 11.0591 53.5505 11.0591C55.0135 11.0591 55.3478 12.3585 55.3478 13.1339H51.5859Z" fill="black"/>
<path d="M60.0828 6.95123V9.17282H58.7244V11.5202H60.0828V15.7118C60.0828 17.158 60.3754 18.143 60.9606 18.7508C61.4622 19.2748 62.3191 19.652 63.3431 19.652C64.2418 19.652 64.9942 19.5263 65.4122 19.3586L65.3913 16.9484C65.1614 16.9903 64.8479 17.0322 64.4508 17.0322C63.4894 17.0322 63.1969 16.4663 63.1969 15.2298V11.5202H65.4749V9.17282H63.1969V6.23865L60.0828 6.95123Z" fill="black"/>
<path d="M75.3061 13.3645C75.3061 10.9543 74.2193 8.94226 70.8127 8.94226C68.9527 8.94226 67.5524 9.44526 66.8418 9.84347L67.427 11.8974C68.0958 11.4782 69.2035 11.1219 70.2484 11.1219C71.8159 11.1219 72.1085 11.8974 72.1085 12.4423V12.589C68.4929 12.5681 66.1104 13.8465 66.1104 16.5082C66.1104 18.143 67.3434 19.652 69.4125 19.652C70.6246 19.652 71.6696 19.2119 72.3384 18.3945H72.4011L72.5892 19.4215H75.4524C75.3479 18.8556 75.3061 17.9125 75.3061 16.9274V13.3645ZM72.213 15.6909C72.213 15.8795 72.1921 16.0681 72.1503 16.2358C71.9413 16.8855 71.2934 17.4095 70.4992 17.4095C69.7887 17.4095 69.2453 17.0112 69.2453 16.1939C69.2453 14.9573 70.541 14.5591 72.213 14.5801V15.6909Z" fill="black"/>
<path d="M84.5961 16.8017C84.1155 17.0112 83.5303 17.137 82.7779 17.137C81.2313 17.137 79.9774 16.152 79.9774 14.2657C79.9565 12.589 81.0432 11.3944 82.7152 11.3944C83.5512 11.3944 84.1155 11.5411 84.4916 11.7088L84.9932 9.34047C84.3244 9.08897 83.4049 8.94226 82.5689 8.94226C78.7652 8.94226 76.717 11.3944 76.717 14.3914C76.717 17.619 78.8279 19.652 82.13 19.652C83.3422 19.652 84.408 19.4215 84.9723 19.17L84.5961 16.8017Z" fill="black"/>
<path d="M86.1925 19.4215H89.3692V14.2238C89.3692 13.9723 89.3901 13.7208 89.4319 13.5112C89.6409 12.5262 90.4351 11.8974 91.6054 11.8974C91.9607 11.8974 92.2324 11.9393 92.4623 12.0022V8.98418C92.2324 8.94227 92.0861 8.94226 91.7935 8.94226C90.8113 8.94226 89.5573 9.57102 89.0348 11.0591H88.9512L88.8467 9.17281H86.1089C86.1507 10.0531 86.1925 11.0381 86.1925 12.5471V19.4215Z" fill="black"/>
<path d="M96.7493 19.4215V9.17282H93.5726V19.4215H96.7493ZM95.161 4.70868C94.1369 4.70868 93.4681 5.40031 93.489 6.32248C93.4681 7.20273 94.1369 7.91532 95.1401 7.91532C96.185 7.91532 96.8538 7.20273 96.8538 6.32248C96.8329 5.40031 96.185 4.70868 95.161 4.70868Z" fill="black"/>
<path d="M99.1871 6.95123V9.17282H97.8286V11.5202H99.1871V15.7118C99.1871 17.158 99.4797 18.143 100.065 18.7508C100.566 19.2748 101.423 19.652 102.447 19.652C103.346 19.652 104.098 19.5263 104.516 19.3586L104.496 16.9484C104.266 16.9903 103.952 17.0322 103.555 17.0322C102.594 17.0322 102.301 16.4663 102.301 15.2298V11.5202H104.579V9.17282H102.301V6.23865L99.1871 6.95123Z" fill="black"/>
<path d="M109.06 19.4215V9.17282H105.883V19.4215H109.06ZM107.472 4.70868C106.448 4.70868 105.779 5.40031 105.8 6.32248C105.779 7.20273 106.448 7.91532 107.451 7.91532C108.496 7.91532 109.165 7.20273 109.165 6.32248C109.144 5.40031 108.496 4.70868 107.472 4.70868Z" fill="black"/>
<path d="M118.353 16.8017C117.872 17.0112 117.287 17.137 116.535 17.137C114.988 17.137 113.734 16.152 113.734 14.2657C113.713 12.589 114.8 11.3944 116.472 11.3944C117.308 11.3944 117.872 11.5411 118.248 11.7088L118.75 9.34047C118.081 9.08897 117.162 8.94226 116.326 8.94226C112.522 8.94226 110.474 11.3944 110.474 14.3914C110.474 17.619 112.585 19.652 115.887 19.652C117.099 19.652 118.165 19.4215 118.729 19.17L118.353 16.8017Z" fill="black"/>
</svg>
