<svg width="36" height="8" viewBox="0 0 36 8" fill="none" xmlns="http://www.w3.org/2000/svg">
<path d="M1.67502 0.0252919C0.895667 0.167786 0.268621 0.757645 0.070948 1.53308C-0.000343995 1.81309 -0.00520481 1.97713 0.00289655 4.14933C0.00775737 6.14425 0.00937764 6.19064 0.0417831 6.34473C0.221633 7.17484 0.798451 7.76636 1.61831 7.96187C1.72525 7.98673 1.86135 7.9917 2.73792 7.99667C3.64527 8.0033 3.73925 8.00164 3.76355 7.97679C3.78785 7.95193 3.78947 7.63215 3.78947 4.00684C3.78947 1.31934 3.78461 0.0534596 3.77327 0.0302629C3.75707 0.000438213 3.72952 -0.0012188 2.78004 0.000438213C2.00879 0.00209522 1.7771 0.00706625 1.67502 0.0252919ZM3.14136 4.00187V7.35876L2.48191 7.35048C1.87431 7.34385 1.8095 7.34053 1.68798 7.30905C1.16625 7.17153 0.779007 6.76062 0.670449 6.22544C0.634803 6.05809 0.634803 1.93571 0.668829 1.77167C0.766045 1.30608 1.082 0.920022 1.50813 0.746046C1.72201 0.65823 1.82084 0.648289 2.51432 0.646632L3.14136 0.644975V4.00187Z" fill="#AAAAAA"/>
<path d="M4.34753 0.0147276C4.24983 0.0351611 4.10095 0.116895 4.02186 0.19352C3.85903 0.348474 3.77839 0.568134 3.79079 0.826957C3.797 0.961477 3.80475 0.997236 3.85438 1.10621C3.92726 1.27138 4.03737 1.39228 4.1878 1.47402C4.2917 1.53021 4.31806 1.53702 4.45298 1.54213C4.57549 1.54724 4.61892 1.54213 4.70111 1.51148C5.03763 1.38717 5.24078 1.02789 5.1834 0.660084C5.11672 0.222468 4.73833 -0.0704117 4.34753 0.0147276Z" fill="#AAAAAA"/>
<path d="M5.2046 0.0115948C5.1979 0.0165639 5.19287 1.81209 5.19287 4.00183C5.19287 7.61441 5.19455 7.98047 5.21968 7.99041C5.26493 8.00697 6.56537 8.00034 6.72625 7.98378C7.40664 7.90759 8.00658 7.49846 8.33337 6.89057C8.37526 6.81272 8.43057 6.68186 8.45905 6.6007C8.56463 6.2893 8.56128 6.37212 8.56128 3.99189C8.56128 2.09202 8.55793 1.80877 8.53447 1.68786C8.36856 0.82488 7.70326 0.173921 6.82848 0.0248461C6.71117 0.00496912 6.53018 0 5.94699 0C5.54479 0 5.20963 0.00496912 5.2046 0.0115948ZM6.99438 3.6192C7.25581 3.68712 7.47032 3.88422 7.55746 4.136C7.61276 4.2917 7.61109 4.52028 7.55578 4.66273C7.45356 4.92444 7.25246 5.10829 6.99438 5.17621C6.57543 5.28387 6.12966 5.03376 6.00732 4.62297C5.97045 4.49709 5.97213 4.28507 6.01403 4.15587C6.13971 3.75006 6.57543 3.51154 6.99438 3.6192Z" fill="#AAAAAA"/>
<path d="M34.039 0.0460978C33.4541 0.238566 33.1069 0.800874 33.205 1.41224C33.2654 1.80473 33.4918 2.11418 33.839 2.29156C34.3107 2.52554 34.8127 2.46515 35.19 2.12551C35.4731 1.86888 35.5938 1.60094 35.5938 1.21977C35.5938 0.861256 35.4882 0.59331 35.2504 0.355556C34.9523 0.0574193 34.4164 -0.0784402 34.039 0.0460978ZM34.707 0.597084C34.9334 0.714074 35.058 0.902768 35.0768 1.15939C35.0995 1.49527 34.9561 1.7368 34.6579 1.86133C34.1522 2.07267 33.5786 1.58584 33.722 1.06127C33.7824 0.827291 33.8843 0.695205 34.073 0.600858C34.2768 0.502737 34.5145 0.498963 34.707 0.597084Z" fill="#AAAAAA"/>
<path d="M8.74268 1.2198V2.3746L8.98043 2.36328L9.21441 2.35196L9.23328 1.6236L9.25215 0.895242L9.79936 1.63115L10.3466 2.37083L10.573 2.36328L10.7994 2.35196V1.2198V0.0876324L10.5655 0.0763106L10.3277 0.0649891V0.808443V1.55567L9.77294 0.812217L9.21441 0.068763H8.98043H8.74268V1.2198Z" fill="#AAAAAA"/>
<path d="M12.5166 1.21982V2.37085H12.7619H13.0072V1.21982V0.068783H12.7619H12.5166V1.21982Z" fill="#AAAAAA"/>
<path d="M14.7244 0.117823C14.7131 0.144241 14.7093 0.657488 14.7131 1.25753L14.7244 2.35196L14.9622 2.36328L15.1961 2.3746V1.61228V0.846182L15.7622 1.60851L16.3283 2.37083H16.5547H16.7812V1.2198V0.068763H16.5359H16.2906L16.283 0.793348L16.2717 1.51793L15.7283 0.793348L15.1886 0.068763H14.9659C14.8188 0.068763 14.7357 0.0838585 14.7244 0.117823Z" fill="#AAAAAA"/>
<path d="M18.3926 0.0952001C18.3775 0.106522 18.3662 0.219738 18.3662 0.340502V0.559387H18.7436H19.121V1.46512V2.37085H19.3663H19.6116V1.46512V0.559387H19.9701H20.3286V0.314085V0.068783H19.3738C18.8455 0.068783 18.4039 0.0801046 18.3926 0.0952001Z" fill="#AAAAAA"/>
<path d="M21.9893 1.21982V2.37085H22.8761H23.763V2.14442V1.91798H23.1026H22.4421V1.65381V1.38964H23.0459H23.6498V1.18208V0.974514H23.0459H22.4421V0.748081V0.521649L23.095 0.514101L23.7441 0.502779L23.7554 0.283894L23.7668 0.068783H22.8761H21.9893V1.21982Z" fill="#AAAAAA"/>
<path d="M25.6309 0.117823C25.6196 0.144241 25.6158 0.657488 25.6196 1.25753L25.6309 2.35196L25.8687 2.36328L26.1026 2.3746V1.60851V0.846182L26.6687 1.60851L27.2348 2.37083H27.4612H27.6877V1.2198V0.068763H27.4424H27.1971L27.1895 0.793348L27.1782 1.51793L26.6348 0.793348L26.0951 0.068763H25.8724C25.7252 0.068763 25.6422 0.0838585 25.6309 0.117823Z" fill="#AAAAAA"/>
<path d="M29.6123 1.21604V2.37085H30.1142C30.6954 2.37085 30.9709 2.31424 31.22 2.14064C31.9559 1.63494 31.8427 0.55184 31.0162 0.170678C30.8615 0.0989742 30.7558 0.0876524 30.2274 0.0763309L29.6123 0.0612354V1.21604ZM30.8464 0.631091C31.1634 0.778273 31.2992 1.18208 31.1407 1.51795C31.02 1.76703 30.7747 1.88025 30.3444 1.88025H30.0652V1.21982V0.559387H30.3784C30.6011 0.559387 30.7331 0.582031 30.8464 0.631091Z" fill="#AAAAAA"/>
<path d="M28.4726 3.39355C27.948 3.46148 27.4801 3.70678 27.0951 4.11813C26.2536 5.02386 26.28 6.40133 27.1593 7.27687C27.4839 7.6052 27.7782 7.77502 28.2009 7.88069C28.8953 8.05806 29.5972 7.91843 30.1709 7.48443C30.3935 7.31838 30.6841 6.99383 30.6615 6.93722C30.6539 6.92213 30.4992 6.78249 30.3143 6.62022L29.9822 6.32963L29.8803 6.46171C29.3934 7.0995 28.4085 7.16743 27.8386 6.59757C27.7556 6.51455 27.6424 6.35982 27.5858 6.25038C27.4914 6.06923 27.4801 6.01262 27.4801 5.67297C27.4801 5.34842 27.4914 5.26917 27.5744 5.10689C27.8537 4.52949 28.5443 4.21625 29.1444 4.38985C29.4236 4.4691 29.6878 4.63515 29.8539 4.83517L29.9822 4.9899L30.1482 4.85404C30.2388 4.78234 30.3973 4.6427 30.4992 4.55213L30.6879 4.38231L30.5407 4.20116C30.0501 3.60489 29.2576 3.29543 28.4726 3.39355Z" fill="#AAAAAA"/>
<path d="M9.80717 3.54071C8.90898 3.77847 8.4448 4.37851 8.64481 5.05781C8.78822 5.55974 9.26373 5.80504 10.528 6.03147C11.3771 6.18243 11.6262 6.30697 11.6262 6.57491C11.6262 6.75983 11.5167 6.89569 11.279 7.00513C11.0752 7.09948 11.0299 7.10703 10.5167 7.10703C9.90906 7.10703 9.67131 7.05797 9.22221 6.85418C9.08258 6.79002 8.96182 6.74474 8.95427 6.75228C8.90898 6.80889 8.55046 7.47687 8.56179 7.48442C8.59952 7.52593 9.20335 7.74481 9.45242 7.81274C9.86755 7.92219 10.7544 7.9486 11.2073 7.86558C12.0526 7.70708 12.4715 7.31837 12.5093 6.66548C12.5395 6.12582 12.3885 5.84655 11.9243 5.60502C11.5922 5.43143 11.3054 5.3484 10.5733 5.20122C9.93548 5.07668 9.75433 5.0163 9.62225 4.89176C9.50526 4.78232 9.50526 4.58608 9.62602 4.46531C9.89774 4.19359 10.8714 4.18227 11.6262 4.44644C11.7507 4.48796 11.8639 4.5106 11.879 4.4955C11.9054 4.46531 12.1772 3.82753 12.1772 3.78979C12.1772 3.75582 11.5998 3.586 11.2752 3.52562C10.8374 3.44259 10.1581 3.45014 9.80717 3.54071Z" fill="#AAAAAA"/>
<path d="M13.0223 3.56715C13.0336 3.60489 13.2978 4.54459 13.611 5.65411C13.9243 6.76363 14.1884 7.70332 14.1998 7.73729C14.2186 7.79767 14.279 7.80522 14.7432 7.80522H15.2678L15.3093 7.66181C15.6829 6.31076 16.0603 5.04274 16.0792 5.08802C16.0905 5.11821 16.2679 5.73713 16.4716 6.46549L16.8415 7.78635L17.3698 7.79767L17.8982 7.80899L18.4982 5.70317C18.8265 4.54459 19.102 3.5747 19.1134 3.54828C19.1247 3.51432 19.019 3.50299 18.6529 3.50299H18.1812L18.1284 3.68037C18.0982 3.78226 17.917 4.46156 17.7246 5.18992C17.5283 5.92205 17.3623 6.5221 17.3472 6.5221C17.3359 6.5221 17.1585 5.94847 16.9547 5.24653C16.7509 4.54836 16.5509 3.86906 16.5094 3.73698L16.4377 3.49922L16.0527 3.51054L15.6678 3.52186L15.2263 5.03142C14.9847 5.86167 14.7847 6.54851 14.7809 6.55984C14.7772 6.57116 14.6073 5.95979 14.4073 5.20124C14.2035 4.44269 14.0148 3.75207 13.9922 3.6615L13.9469 3.50299H13.4752C13.0412 3.50299 13.0034 3.50677 13.0223 3.56715Z" fill="#AAAAAA"/>
<path d="M20.1777 5.65413V7.80524H20.6683H21.1589L21.1514 5.66167L21.1401 3.52188L20.6608 3.51056L20.1777 3.49924V5.65413Z" fill="#AAAAAA"/>
<path d="M22.1777 3.97475V4.44648H22.857H23.5363V6.12586V7.80524H24.0081H24.4798V6.12586V4.44648L25.1516 4.43894L25.8195 4.42761V3.97475V3.52188L24.0005 3.51056L22.1777 3.50301V3.97475Z" fill="#AAAAAA"/>
<path d="M31.6504 5.65413V7.80524H32.1033H32.5561V6.95611V6.10699H33.5562H34.5563V6.95611V7.80524H35.0091H35.462L35.4545 5.66167L35.4431 3.52188L35.0016 3.51056L34.5563 3.49924V4.35214V5.20126H33.5562H32.5561V4.35214V3.50301H32.1033H31.6504V5.65413Z" fill="#AAAAAA"/>
</svg>
