<svg width="73" height="16" viewBox="0 0 73 16" fill="none" xmlns="http://www.w3.org/2000/svg">
<path d="M69.3268 0.0927386C68.1503 0.479822 67.4521 1.61071 67.6494 2.84027C67.7708 3.62961 68.2262 4.25198 68.9245 4.60871C69.8732 5.07928 70.8827 4.95784 71.6417 4.27475C72.2109 3.75864 72.4538 3.21976 72.4538 2.45319C72.4538 1.73215 72.2413 1.19327 71.7631 0.715107C71.1635 0.115508 70.0857 -0.157727 69.3268 0.0927386ZM70.6702 1.20086C71.1256 1.43614 71.376 1.81564 71.414 2.33175C71.4595 3.00725 71.1711 3.493 70.5715 3.74346C69.5545 4.16849 68.4008 3.1894 68.6892 2.13441C68.8107 1.66384 69.0156 1.39819 69.3951 1.20845C69.8049 1.01111 70.2831 1.00352 70.6702 1.20086Z" fill="white"/>
<path d="M18.4517 2.45317V4.77567L18.9298 4.7529L19.4004 4.73013L19.4383 3.26528L19.4763 1.80044L20.5768 3.28046L21.6774 4.76808L22.1327 4.7529L22.5881 4.73013V2.45317V0.176209L22.1176 0.15344L21.6394 0.130671V1.62587V3.12867L20.5237 1.63346L19.4004 0.13826H18.9298H18.4517V2.45317Z" fill="white"/>
<path d="M26.0415 2.45316V4.76807H26.5348H27.0282V2.45316V0.138252H26.5348H26.0415V2.45316Z" fill="white"/>
<path d="M30.4819 0.236929C30.4591 0.290058 30.4516 1.32228 30.4591 2.52907L30.4819 4.73013L30.9601 4.7529L31.4306 4.77567V3.24251V1.70177L32.5691 3.23492L33.7076 4.76808H34.163H34.6184V2.45317V0.138261H34.125H33.6317L33.6165 1.59551L33.5938 3.05277L32.5008 1.59551L31.4155 0.138261H30.9677C30.6717 0.138261 30.5047 0.16862 30.4819 0.236929Z" fill="white"/>
<path d="M37.859 0.191381C37.8287 0.21415 37.8059 0.441846 37.8059 0.684722V1.12493H38.5649H39.3239V2.9465V4.76807H39.8172H40.3106V2.9465V1.12493H41.0316H41.7526V0.631593V0.138252H39.8324C38.7698 0.138252 37.8818 0.161021 37.859 0.191381Z" fill="white"/>
<path d="M45.0923 2.45316V4.76807H46.8759H48.6595V4.31267V3.85728H47.3313H46.0031V3.32599V2.7947H47.2174H48.4318V2.37726V1.95982H47.2174H46.0031V1.50443V1.04904L47.3161 1.03386L48.6216 1.01109L48.6443 0.570874L48.6671 0.138252H46.8759H45.0923V2.45316Z" fill="white"/>
<path d="M52.4165 0.236929C52.3937 0.290058 52.3861 1.32228 52.3937 2.52907L52.4165 4.73013L52.8946 4.7529L53.3652 4.77567V3.23492V1.70177L54.5037 3.23492L55.6422 4.76808H56.0976H56.553V2.45317V0.138261H56.0596H55.5663L55.5511 1.59551L55.5283 3.05277L54.4354 1.59551L53.35 0.138261H52.9022C52.6062 0.138261 52.4393 0.16862 52.4165 0.236929Z" fill="white"/>
<path d="M60.4238 2.44557V4.76807H61.4333C62.6021 4.76807 63.1562 4.65422 63.6571 4.30508C65.1371 3.28804 64.9094 1.10975 63.2473 0.343177C62.9361 0.19897 62.7236 0.1762 61.661 0.153431L60.4238 0.123072V2.44557ZM62.9057 1.26914C63.5433 1.56515 63.8165 2.37726 63.4977 3.05276C63.2548 3.55369 62.7615 3.78138 61.8963 3.78138H61.3346V2.45316V1.12493H61.9646C62.4124 1.12493 62.678 1.17047 62.9057 1.26914Z" fill="white"/>
<path d="M58.1315 6.82495C57.0765 6.96157 56.1354 7.45491 55.3612 8.2822C53.6687 10.1038 53.7218 12.8741 55.4902 14.6349C56.143 15.2952 56.735 15.6368 57.585 15.8493C58.9816 16.206 60.3933 15.9252 61.5469 15.0524C61.9947 14.7184 62.5792 14.0657 62.5336 13.9518C62.5184 13.9215 62.2073 13.6406 61.8354 13.3143L61.1674 12.7299L60.9625 12.9955C59.9834 14.2782 58.0025 14.4148 56.8564 13.2687C56.6894 13.1018 56.4617 12.7906 56.3479 12.5705C56.1581 12.2062 56.1354 12.0923 56.1354 11.4092C56.1354 10.7565 56.1581 10.5971 56.3251 10.2707C56.8868 9.1095 58.2757 8.47954 59.4825 8.82867C60.0441 8.98806 60.5754 9.32201 60.9094 9.72427L61.1674 10.0355L61.5014 9.76222C61.6836 9.61802 62.0023 9.33719 62.2073 9.15503L62.5868 8.81349L62.2907 8.44918C61.3041 7.24998 59.7102 6.62761 58.1315 6.82495Z" fill="white"/>
<path d="M20.5921 7.12092C18.7857 7.59908 17.8522 8.80587 18.2544 10.172C18.5428 11.1815 19.4992 11.6748 22.0418 12.1302C23.7495 12.4338 24.2504 12.6843 24.2504 13.2232C24.2504 13.5951 24.0303 13.8683 23.5521 14.0884C23.1423 14.2782 23.0512 14.2933 22.019 14.2933C20.797 14.2933 20.3189 14.1947 19.4157 13.7848C19.1348 13.6558 18.892 13.5647 18.8768 13.5799C18.7857 13.6937 18.0647 15.0371 18.0874 15.0523C18.1633 15.1358 19.3777 15.576 19.8786 15.7126C20.7135 15.9327 22.4971 15.9859 23.4079 15.8189C25.1081 15.5001 25.9505 14.7184 26.0264 13.4053C26.0872 12.32 25.7836 11.7583 24.85 11.2726C24.1821 10.9234 23.6053 10.7565 22.1328 10.4605C20.8502 10.21 20.4858 10.0886 20.2202 9.83809C19.9849 9.61798 19.9849 9.22331 20.2278 8.98044C20.7743 8.43397 22.7324 8.4112 24.2504 8.94249C24.5009 9.02597 24.7286 9.07151 24.7589 9.04115C24.8121 8.98044 25.3585 7.69775 25.3585 7.62185C25.3585 7.55354 24.1973 7.212 23.5446 7.09056C22.6641 6.92358 21.298 6.93876 20.5921 7.12092Z" fill="white"/>
<path d="M27.0588 7.17408C27.0816 7.24998 27.6129 9.13985 28.2429 11.3713C28.8728 13.6027 29.4041 15.4926 29.4269 15.5609C29.4648 15.6823 29.5863 15.6975 30.5198 15.6975H31.5748L31.6583 15.4091C32.4097 12.6919 33.1687 10.1417 33.2066 10.2328C33.2294 10.2935 33.5861 11.5382 33.996 13.0031L34.7398 15.6595L35.8024 15.6823L36.8649 15.7051L38.0717 11.4699C38.732 9.13985 39.2861 7.18926 39.3089 7.13613C39.3316 7.06782 39.1191 7.04505 38.3829 7.04505H37.4342L37.3279 7.40177C37.2672 7.6067 36.9029 8.97287 36.5158 10.4377C36.1211 11.9101 35.7872 13.1169 35.7568 13.1169C35.734 13.1169 35.3773 11.9633 34.9675 10.5516C34.5576 9.14744 34.1554 7.78126 34.0719 7.51562L33.9277 7.03746L33.1535 7.06023L32.3793 7.083L31.4913 10.1189C31.0056 11.7887 30.6033 13.1701 30.5957 13.1928C30.5881 13.2156 30.2466 11.986 29.8443 10.4605C29.4345 8.93492 29.055 7.54598 29.0094 7.36382L28.9184 7.04505H27.9696C27.0968 7.04505 27.0209 7.05264 27.0588 7.17408Z" fill="white"/>
<path d="M41.449 11.3713V15.6975H42.4357H43.4223L43.4072 11.3864L43.3844 7.08299L42.4205 7.06022L41.449 7.03745V11.3713Z" fill="white"/>
<path d="M45.4719 7.99377V8.9425H46.8381H48.2043V12.32V15.6975H49.153H50.1017V12.32V8.9425L51.4527 8.92732L52.7961 8.90455V7.99377V7.08299L49.1378 7.06022L45.4719 7.04504V7.99377Z" fill="white"/>
<path d="M64.5222 11.3713V15.6975H65.433H66.3438V13.9898V12.282H68.3551H70.3664V13.9898V15.6975H71.2772H72.188L72.1728 11.3864L72.15 7.08299L71.262 7.06022L70.3664 7.03745V8.75276V10.4605H68.3551H66.3438V8.75276V7.04504H65.433H64.5222V11.3713Z" fill="white"/>
<path d="M3.68989 0.0505838C1.97306 0.335572 0.591745 1.51529 0.156291 3.06615C-0.000757787 3.62619 -0.0114657 3.95426 0.00638081 8.29866C0.0170887 12.2885 0.020658 12.3813 0.0920439 12.6895C0.488236 14.3497 1.75891 15.5327 3.56497 15.9237C3.80054 15.9735 4.10036 15.9834 6.03135 15.9933C8.03016 16.0066 8.23718 16.0033 8.29072 15.9536C8.34426 15.9039 8.34783 15.2643 8.34783 8.01368C8.34783 2.63867 8.33712 0.106919 8.31213 0.0605259C8.27644 0.000876427 8.21576 -0.00243759 6.12416 0.000876427C4.42517 0.00419044 3.91476 0.0141325 3.68989 0.0505838ZM6.92011 8.00374V14.7175L5.4674 14.701C4.12892 14.6877 3.98615 14.6811 3.71845 14.6181C2.56914 14.3431 1.71607 13.5212 1.47693 12.4509C1.39841 12.1162 1.39841 3.87141 1.47336 3.54334C1.68752 2.61216 2.38353 1.84004 3.32226 1.49209C3.7934 1.31646 4.01113 1.29658 5.53879 1.29326L6.92011 1.28995V8.00374Z" fill="white"/>
<path d="M3.88897 3.50481C3.69527 3.54164 3.4001 3.68895 3.2433 3.82706C2.92046 4.10635 2.76058 4.50225 2.78518 4.96875C2.79748 5.21121 2.81285 5.27566 2.91124 5.47208C3.05575 5.76977 3.27404 5.98768 3.57228 6.13499C3.77828 6.23627 3.83055 6.24855 4.09804 6.25775C4.34093 6.26696 4.42702 6.25775 4.58998 6.20251C5.25717 5.97847 5.65994 5.3309 5.54618 4.66798C5.41397 3.87924 4.66377 3.35136 3.88897 3.50481Z" fill="white"/>
<path d="M9.76082 0.0231895C9.74836 0.0331278 9.73901 3.62417 9.73901 8.00366C9.73901 15.2288 9.74213 15.9609 9.78885 15.9808C9.87295 16.0139 12.2901 16.0007 12.5891 15.9676C13.8537 15.8152 14.9688 14.9969 15.5762 13.7811C15.6541 13.6254 15.7569 13.3637 15.8099 13.2014C16.0061 12.5786 15.9999 12.7442 15.9999 7.98378C15.9999 4.18403 15.9936 3.61755 15.95 3.37571C15.6417 1.64976 14.4051 0.347841 12.7791 0.0496922C12.5611 0.00993824 12.2247 0 11.1407 0C10.3931 0 9.77016 0.00993824 9.76082 0.0231895ZM13.0875 7.23841C13.5734 7.37423 13.9721 7.76845 14.1341 8.27199C14.2369 8.58339 14.2337 9.04055 14.131 9.32545C13.9409 9.84887 13.5672 10.2166 13.0875 10.3524C12.3088 10.5677 11.4802 10.0675 11.2528 9.24595C11.1843 8.99418 11.1874 8.57014 11.2653 8.31174C11.4989 7.50012 12.3088 7.02308 13.0875 7.23841Z" fill="white"/>
</svg>
