<svg width="32" height="33" viewBox="0 0 32 33" fill="none" xmlns="http://www.w3.org/2000/svg">
<path d="M16 12.2248C15.2465 12.2251 14.51 12.4494 13.8837 12.8695C13.2573 13.2895 12.7692 13.8863 12.481 14.5845C12.1929 15.2827 12.1176 16.0509 12.2648 16.792C12.412 17.5331 12.775 18.2138 13.3079 18.748C13.8408 19.2822 14.5196 19.646 15.2587 19.7933C15.9977 19.9406 16.7637 19.8648 17.4598 19.5756C18.1559 19.2864 18.7508 18.7966 19.1694 18.1683C19.588 17.54 19.8114 16.8014 19.8114 16.0457C19.8107 15.0323 19.4088 14.0607 18.6942 13.3443C17.9795 12.6278 17.0105 12.2252 16 12.2248ZM24.9079 9.28789C24.7139 8.79494 24.421 8.34722 24.0474 7.9725C23.6737 7.59778 23.2273 7.30405 22.7357 7.10954C21.2357 6.51571 17.6643 6.64894 16 6.64894C14.3357 6.64894 10.7679 6.51069 9.26357 7.10954C8.77203 7.30405 8.32559 7.59778 7.95193 7.9725C7.57828 8.34722 7.28539 8.79494 7.09143 9.28789C6.5 10.7922 6.63214 14.3774 6.63214 16.045C6.63214 17.7126 6.5 21.2935 7.09429 22.8028C7.28825 23.2958 7.58114 23.7435 7.95479 24.1182C8.32844 24.4929 8.77489 24.7867 9.26643 24.9812C10.7664 25.575 14.3379 25.4418 16.0029 25.4418C17.6679 25.4418 21.2343 25.58 22.7386 24.9812C23.2301 24.7867 23.6766 24.4929 24.0502 24.1182C24.4239 23.7435 24.7168 23.2958 24.9107 22.8028C25.5071 21.2985 25.37 17.7133 25.37 16.0457C25.37 14.3781 25.5071 10.7979 24.9107 9.2886L24.9079 9.28789ZM16 21.9196C14.8416 21.9196 13.7091 21.5751 12.7459 20.9297C11.7827 20.2842 11.032 19.3669 10.5887 18.2935C10.1454 17.2202 10.0294 16.0392 10.2554 14.8998C10.4814 13.7604 11.0392 12.7137 11.8584 11.8923C12.6775 11.0708 13.7212 10.5113 14.8573 10.2847C15.9935 10.0581 17.1712 10.1744 18.2414 10.619C19.3117 11.0635 20.2264 11.8164 20.87 12.7824C21.5136 13.7483 21.8571 14.884 21.8571 16.0457C21.8581 16.8173 21.7072 17.5816 21.4132 18.2947C21.1192 19.0077 20.6878 19.6556 20.1437 20.2013C19.5996 20.7469 18.9536 21.1795 18.2425 21.4744C17.5315 21.7692 16.7694 21.9205 16 21.9196ZM22.0986 11.2965C21.8281 11.2966 21.5638 11.2163 21.3388 11.0658C21.1139 10.9152 20.9386 10.7011 20.835 10.4506C20.7314 10.2001 20.7042 9.92439 20.7569 9.65838C20.8096 9.39238 20.9397 9.14801 21.1309 8.95619C21.3221 8.76438 21.5657 8.63373 21.8309 8.58077C22.0961 8.52781 22.371 8.55492 22.6209 8.65867C22.8707 8.76242 23.0843 8.93815 23.2345 9.16363C23.3848 9.38912 23.465 9.65422 23.465 9.92542C23.4658 10.1055 23.431 10.284 23.3629 10.4506C23.2947 10.6172 23.1944 10.7687 23.0677 10.8963C22.941 11.024 22.7904 11.1253 22.6246 11.1944C22.4588 11.2636 22.281 11.2992 22.1014 11.2993L22.0986 11.2965ZM28.5714 0H3.42857C2.51926 0 1.64719 0.362256 1.00421 1.00707C0.361223 1.65189 0 2.52646 0 3.43837L0 28.6531C0 29.565 0.361223 30.4395 1.00421 31.0844C1.64719 31.7292 2.51926 32.0914 3.42857 32.0914H28.5714C29.4807 32.0914 30.3528 31.7292 30.9958 31.0844C31.6388 30.4395 32 29.565 32 28.6531V3.43837C32 2.52646 31.6388 1.65189 30.9958 1.00707C30.3528 0.362256 29.4807 0 28.5714 0ZM27.3486 20.7735C27.2564 22.6094 26.8386 24.2362 25.5021 25.5729C24.1657 26.9095 22.545 27.3372 20.7164 27.4246C18.83 27.5313 13.1743 27.5313 11.2879 27.4246C9.45714 27.3322 7.84071 26.9124 6.50214 25.5729C5.16357 24.2333 4.74286 22.6058 4.65571 20.7735C4.54929 18.8809 4.54929 13.2083 4.65571 11.318C4.74786 9.48201 5.16071 7.85524 6.50214 6.51857C7.84357 5.18191 9.46429 4.75927 11.2879 4.67188C13.1743 4.56515 18.83 4.56515 20.7164 4.67188C22.5471 4.76429 24.1686 5.18405 25.5021 6.52358C26.8357 7.86312 27.2614 9.49061 27.3486 11.3266C27.455 13.2119 27.455 18.8795 27.3486 20.7735Z" fill="#AAAAAA"/>
</svg>
