<svg width="32" height="33" viewBox="0 0 32 33" fill="none" xmlns="http://www.w3.org/2000/svg">
<path d="M13.3429 12.1847L20.1429 16.06L13.3429 19.9354V12.1847ZM32 3.43837V28.6531C32 30.5513 30.4643 32.0914 28.5714 32.0914H3.42857C1.53571 32.0914 0 30.5513 0 28.6531V3.43837C0 1.5401 1.53571 0 3.42857 0H28.5714C30.4643 0 32 1.5401 32 3.43837ZM29 16.0672C29 16.0672 29 11.7979 28.4571 9.7492C28.1571 8.61741 27.2786 7.72916 26.1571 7.42831C24.1357 6.87673 16 6.87673 16 6.87673C16 6.87673 7.86429 6.87673 5.84286 7.42831C4.72143 7.72916 3.84286 8.61741 3.54286 9.7492C3 11.7907 3 16.0672 3 16.0672C3 16.0672 3 20.3365 3.54286 22.3852C3.84286 23.517 4.72143 24.3694 5.84286 24.6703C7.86429 25.2147 16 25.2147 16 25.2147C16 25.2147 24.1357 25.2147 26.1571 24.6631C27.2786 24.3623 28.1571 23.5098 28.4571 22.378C29 20.3365 29 16.0672 29 16.0672Z" fill="#AAAAAA"/>
</svg>
