<svg width="87" height="16" viewBox="0 0 87 16" fill="none" xmlns="http://www.w3.org/2000/svg">
<g clip-path="url(#clip0_26_5245)">
<path d="M0.369629 2.27273L6.81963 1.38182V7.65454H0.369629M7.59652 1.25455L16.1423 0V7.6H7.59652M0.369629 8.31636H6.81963V14.6073L0.369629 13.6982M7.59652 8.4H16.1423V15.9273L7.59652 14.7091M20.9663 3.09091L22.1876 3.09818L24.0847 10.0255C24.2202 10.5091 24.3195 11.0036 24.381 11.5055C25.0422 8.66909 25.9456 5.90545 26.7116 3.10545L27.7686 3.10909L29.4019 9.10909C29.606 9.90545 29.8716 10.6909 29.9529 11.5091C30.5491 8.67273 31.4037 5.90909 32.0848 3.10909L33.2881 3.10364L30.6142 12.74H29.3133L27.3801 5.81273C27.2717 5.44 27.2266 5.05455 27.1922 4.66727C27.1416 5 27.0947 5.33636 27.0116 5.66182L25.0603 12.7164C24.6267 12.74 24.1931 12.7418 23.7595 12.7382L20.9771 3.10182M33.9747 3.16364C33.9977 2.98009 34.0893 2.81225 34.2309 2.69429C34.3725 2.57633 34.5535 2.51711 34.7369 2.5287C34.9204 2.54029 35.0926 2.6218 35.2185 2.75665C35.3443 2.8915 35.4144 3.06954 35.4144 3.25455C35.4144 3.43955 35.3443 3.61759 35.2185 3.75244C35.0926 3.88729 34.9204 3.96881 34.7369 3.98039C34.5535 3.99198 34.3725 3.93276 34.2309 3.8148C34.0893 3.69684 33.9977 3.529 33.9747 3.34545M34.1373 5.81818H35.2213V12.7273H34.1373M38.141 6.93091C38.7607 5.82182 40.2061 5.30909 41.3714 5.82182C42.2982 6.18545 42.6433 7.26545 42.6722 8.18545C42.7228 9.69818 42.6813 11.2127 42.6939 12.7255C42.3326 12.7255 41.9712 12.7255 41.6099 12.7236C41.5918 11.2691 41.646 9.81454 41.5846 8.36C41.5557 7.64 41.2521 6.77455 40.4734 6.59091C39.3352 6.24545 38.2024 7.27636 38.1663 8.40909C38.1337 9.84545 38.1645 11.2873 38.1536 12.7255H37.0696V5.81818H38.1536L38.1392 6.93091M49.1511 2.54545H50.2352V12.7273H49.1548L49.124 11.6182C48.3417 13.0327 46.2514 13.3455 45.0589 12.2964C44.2043 11.5564 43.9442 10.3509 43.9893 9.26C43.9984 8.15454 44.3597 6.98727 45.236 6.26C46.3742 5.31818 48.3797 5.37273 49.1746 6.75636L49.1674 2.53818M46.8367 6.55636C45.9695 6.69455 45.3823 7.49091 45.2197 8.31454C45.0065 9.30727 45.0445 10.46 45.666 11.2964C46.3381 12.1945 47.816 12.2145 48.5387 11.3655C49.0265 10.8527 49.1674 10.1182 49.171 9.43818C49.1764 8.71091 49.2379 7.89273 48.7591 7.29273C48.3363 6.68727 47.5486 6.41455 46.844 6.56545M54.3906 5.65636C55.3572 5.57091 56.4322 5.72364 57.1549 6.42727C57.9752 7.19091 58.2209 8.37273 58.1739 9.44545C58.1613 10.4182 57.8035 11.4091 57.0953 12.0818C55.6174 13.4345 52.8676 13.1364 51.9281 11.2782C51.1909 9.72 51.3391 7.56909 52.6869 6.38727C53.1693 5.97636 53.78 5.78727 54.3852 5.65273M54.1901 6.64182C52.6002 7.13273 52.3292 9.22364 52.826 10.6055C53.2235 11.8273 54.7592 12.3691 55.8794 11.7982C56.6292 11.4527 56.9706 10.5982 57.0429 9.81636C57.1242 8.90727 57.0519 7.87091 56.4105 7.16182C55.8685 6.54727 54.9507 6.41636 54.1883 6.64M58.7268 5.81818H59.8578L61.1948 10.7636C61.2851 11.0727 61.3212 11.3927 61.3537 11.7127C61.865 9.73091 62.51 7.78545 63.0918 5.82182L64.0801 5.82727C64.5769 7.79091 65.1948 9.71818 65.6068 11.7182C66.0313 9.75454 66.6366 7.80909 67.1063 5.86364C67.4677 5.84545 67.8326 5.84 68.1976 5.83636L66.156 12.7455H65.0322C64.5444 10.8727 63.9121 9.03636 63.5146 7.14545C63.0448 9.03636 62.389 10.8727 61.8524 12.7455H60.7684L58.7268 5.83636M70.8318 5.63636C71.5093 5.58909 72.1995 5.65455 72.8373 5.90545C73.0143 6.24364 72.877 6.68727 72.9186 7.06909C72.1598 6.59091 71.1119 6.28727 70.2808 6.77273C69.7153 7.08182 69.6882 7.99636 70.2392 8.33636C71.0287 8.85091 72.0315 8.98545 72.7325 9.64545C73.5058 10.3945 73.3179 11.8273 72.4127 12.3909C71.3106 13.0964 69.8652 13.0273 68.7089 12.4891L68.6999 11.2673C69.5201 11.8964 70.6692 12.2455 71.6629 11.7982C72.2356 11.5073 72.2645 10.6236 71.7605 10.2527C70.9709 9.66727 69.8815 9.57454 69.1949 8.84364C68.5029 8.14182 68.6276 6.84364 69.3991 6.26182C69.7966 5.89273 70.3386 5.78182 70.8445 5.63818M78.42 2.94545L78.7995 2.89091V12.7273H77.7299L77.7425 4.52727C77.0614 5 76.3261 5.40727 75.5203 5.63273L75.5329 4.54182C76.5808 4.18364 77.5384 3.60545 78.4056 2.93091M82.7562 2.92727C83.6957 2.76909 84.7436 3.11455 85.3037 3.91818C86.0986 5.04545 86.1709 6.5 86.2106 7.82727C86.1835 9.23454 86.03 10.7545 85.1374 11.9C84.3154 12.9855 82.6261 13.24 81.524 12.4418C80.6297 11.7927 80.2774 10.66 80.1202 9.60545C79.9395 8.04727 79.9576 6.40545 80.4942 4.93273C80.8338 3.92364 81.6721 3.06 82.7526 2.93273M82.5863 3.90909C81.6234 4.30182 81.3469 5.44727 81.2132 6.38182C81.0723 7.68 81.0398 9.01818 81.3469 10.2909C81.5005 10.92 81.8239 11.5873 82.4436 11.8636C83.1482 12.22 84.0877 11.9127 84.4491 11.2145C85.0399 10.1873 85.0543 8.96 85.0634 7.79636C85.0399 6.66909 84.9947 5.46909 84.3768 4.48727C84.01 3.89091 83.2205 3.65091 82.5809 3.90909" fill="#AAAAAA"/>
</g>
<defs>
<clipPath id="clip0_26_5245">
<rect width="86" height="16" fill="white" transform="translate(0.369629)"/>
</clipPath>
</defs>
</svg>
