<svg width="34" height="16" viewBox="0 0 34 16" fill="none" xmlns="http://www.w3.org/2000/svg">
<path d="M24.3921 8.35554L25.6365 6.63702C25.2217 6.54814 24.8365 6.37036 24.481 6.13332C24.1254 5.86665 23.9477 5.45184 23.9773 5.00739C23.9477 4.56295 24.1847 4.14814 24.5402 3.9111C25.0143 3.6148 25.5773 3.49628 26.1402 3.52591C28.3328 3.52591 28.8958 4.68147 29.281 5.15554L30.4662 3.52591C30.2588 3.19999 30.0217 2.90369 29.7254 2.66665C28.9254 2.04443 27.7106 1.71851 26.1106 1.71851C24.718 1.71851 23.6217 2.0148 22.8217 2.63702C22.0514 3.22962 21.6069 4.14814 21.6365 5.12591C21.6365 6.75554 22.5551 7.79258 24.3921 8.35554ZM30.4365 8.26665C29.8736 7.76295 29.044 7.40739 27.8884 7.1111L26.6143 8.85925C27.2662 8.97776 27.8884 9.24443 28.4514 9.62962C28.8069 9.86665 29.0143 10.2815 28.9847 10.7259C29.0143 11.2296 28.7773 11.7333 28.3625 12.0296C27.8291 12.3555 27.1773 12.5333 26.5551 12.4741C24.718 12.4741 23.8588 11.8815 22.9995 10.2815L21.7254 12C21.9625 12.4741 22.2884 12.8592 22.6736 13.1852C23.5625 13.9259 24.8365 14.2815 26.4662 14.2815C28.0069 14.2815 29.1921 13.9555 30.0514 13.3037C30.9106 12.6518 31.3847 11.6444 31.3254 10.5778C31.444 9.71851 31.0884 8.85925 30.4365 8.26665ZM19.5921 14.0148H19.0588V1.98517H19.5921V14.0148ZM4.15507 1.92591C4.33284 1.92591 4.48099 1.98517 4.59951 2.13332C4.80692 2.51851 4.80692 2.96295 4.56988 3.31851C4.45136 3.46665 4.24395 3.55554 4.06618 3.52591V3.17036C4.1847 3.17036 4.30321 3.14073 4.36247 3.05184C4.42173 2.93332 4.45136 2.8148 4.45136 2.69628C4.45136 2.60739 4.42173 2.48888 4.3921 2.39999C4.33284 2.34073 4.27358 2.28147 4.1847 2.3111C4.12544 2.3111 4.03655 2.34073 4.00692 2.39999C3.94766 2.48888 3.91803 2.60739 3.8884 2.72591L3.85877 2.90369C3.82914 3.08147 3.76988 3.22962 3.65136 3.37776C3.56247 3.49628 3.41432 3.52591 3.26618 3.52591C3.11803 3.52591 2.96988 3.46665 2.85136 3.34814C2.76247 3.14073 2.70321 2.96295 2.70321 2.75554C2.70321 2.54814 2.73284 2.34073 2.88099 2.16295C2.99951 2.0148 3.17729 1.95554 3.35507 1.95554V2.3111C3.23655 2.34073 3.14766 2.37036 3.0884 2.45925C3.02914 2.54814 2.99951 2.66665 3.02914 2.75554C3.02914 2.84443 3.05877 2.93332 3.0884 3.02221C3.11803 3.08147 3.20692 3.1111 3.26618 3.1111C3.32544 3.1111 3.41432 3.08147 3.44395 3.02221C3.50321 2.93332 3.53284 2.84443 3.56247 2.72591L3.5921 2.54814C3.5921 2.37036 3.68099 2.22221 3.76988 2.07406C3.8884 1.95554 4.00692 1.89628 4.15507 1.92591ZM3.76988 12.563C3.65136 12.7111 3.5921 12.8889 3.56247 13.0667L3.53284 13.2444C3.50321 13.363 3.47358 13.4518 3.41432 13.5407C3.38469 13.6 3.29581 13.6296 3.23655 13.6296C3.17729 13.6296 3.0884 13.6 3.05877 13.5407C2.99951 13.4518 2.99951 13.363 2.99951 13.2741C2.99951 13.1555 3.02914 13.037 3.0884 12.9481C3.14766 12.8889 3.23655 12.8296 3.32544 12.8296V12.4741C3.14766 12.4741 2.96988 12.563 2.85136 12.6815C2.73284 12.8592 2.67358 13.0667 2.67358 13.2741C2.67358 13.4518 2.70321 13.6592 2.82173 13.8074C2.91062 13.9259 3.05877 14.0148 3.23655 13.9852C3.3847 13.9852 3.53284 13.9259 3.62173 13.837C3.74025 13.6889 3.79951 13.5407 3.82914 13.363L3.85877 13.1852C3.8884 13.0667 3.91803 12.9778 3.97729 12.8592C4.00692 12.8 4.09581 12.7704 4.15507 12.7704C4.24395 12.7704 4.30321 12.8 4.36247 12.8592C4.42173 12.9481 4.45136 13.037 4.42173 13.1555C4.42173 13.2741 4.3921 13.3926 4.33284 13.5111C4.27358 13.6 4.15507 13.6296 4.03655 13.6296V13.9852C4.24395 13.9852 4.42173 13.9259 4.54025 13.7778C4.77729 13.4222 4.77729 12.9481 4.56988 12.5926C4.45136 12.4444 4.30321 12.3852 4.12544 12.3852C4.00692 12.3852 3.85877 12.4444 3.76988 12.563ZM4.71803 7.79258V8.17776C4.65877 8.20739 4.56988 8.23702 4.48099 8.23702H4.27358C4.1847 8.23702 4.09581 8.26665 4.03655 8.32591C3.97729 8.38517 3.94766 8.47406 3.97729 8.56295V9.03702H4.74766V9.42221H2.76247V8.53332C2.76247 8.50369 2.76247 8.44443 2.76247 8.4148V8.44443C2.76247 8.32591 2.7921 8.17777 2.88099 8.05925L2.85136 8.08888C2.85136 8.05925 2.88099 8.02962 2.91062 8.02962C2.99951 7.9111 3.14766 7.85184 3.32544 7.85184C3.53284 7.85184 3.74025 7.97036 3.79951 8.17776C3.82914 8.08888 3.8884 8.02962 3.94766 7.97036C4.03655 7.9111 4.12544 7.9111 4.21432 7.9111L4.51062 7.88147C4.56988 7.85184 4.62914 7.85184 4.71803 7.79258ZM3.35507 8.23702C3.26618 8.23702 3.20692 8.26665 3.14766 8.32591C3.0884 8.38517 3.05877 8.47406 3.0884 8.56295V9.03702H3.68099V8.53332C3.68099 8.44443 3.65136 8.35554 3.5921 8.29628C3.50321 8.23702 3.44395 8.20739 3.35507 8.23702ZM2.76247 7.02221H4.71803V6.63702H2.76247V7.02221ZM3.0884 4.29628H2.76247V5.74814H4.71803V4.29628H4.3921V5.36295H3.8884V4.38517H3.56247V5.36295H3.0884V4.29628ZM3.0884 10.2222H2.76247V11.6741H4.71803V10.2222H4.3921V11.2889H3.8884V10.3111H3.56247V11.2889H3.0884V10.2222ZM5.54766 14.0148H8.15507L10.1106 11.3185L8.80692 9.54073L5.54766 14.0148ZM16.9254 1.98517H14.318L12.718 4.20739L14.0217 5.98517L16.9254 1.98517ZM8.51062 1.98517H5.90321L14.7032 14.0148H17.3106L8.51062 1.98517Z" fill="#AAAAAA"/>
</svg>
